<svg xmlns="http://www.w3.org/2000/svg" width="544" height="427" fill="none" viewBox="0 0 544 427">
  <g clip-path="url(#a)">
    <path fill="#FFCD4D" d="M254.68 30c7.698-13.333 26.943-13.333 34.641 0l200.917 348c7.698 13.333-1.924 30-17.32 30H71.082c-15.396 0-25.018-16.667-17.32-30L254.68 30Z" opacity=".8"/>
    <path fill="#fff" fill-rule="evenodd" d="M268.311 160.727c-10.242 0-18.545 8.303-18.545 18.545v74.182c0 10.242 8.303 18.545 18.545 18.545s18.546-8.303 18.546-18.545v-74.182c0-10.242-8.304-18.545-18.546-18.545Zm.023 150.345c-9.081 0-16.443 7.362-16.443 16.444 0 9.081 7.362 16.443 16.443 16.443 9.082 0 16.444-7.362 16.444-16.443 0-9.082-7.362-16.444-16.444-16.444Zm133.384 86.956a29.888 29.888 0 0 1-8.185 1.13h-27.02c-4.579.976-9.38.991-14.084-.057-8.306 6.968-20.476 9.075-30.582 4.453-12.98-5.937-17.64-20.726-10.409-33.031l15.772-26.841c.096-.164.195-.327.295-.489a27.562 27.562 0 0 1 11.428-14.617l5.867-3.724c11.079-7.033 25.25-5.214 34.225 3.603 9.466-9.947 25.076-11.54 36.43-3.193l3.968 2.917a27.575 27.575 0 0 1 10.265 14.849c.293.516.571 1.044.831 1.584l12.815 26.573c6.14 12.733.457 27.26-12.694 32.446-9.946 3.921-21.315 1.378-28.922-5.603Z" clip-rule="evenodd"/>
    <g filter="url(#b)">
      <path fill="#fff" fill-rule="evenodd" d="M315.409 315.942a24.835 24.835 0 0 1-14.632-3.582c-11.827-7.189-15.636-22.633-8.507-34.496l8.459-14.079a28.102 28.102 0 0 1-.132-3.346c.244-12.192 8.336-22.49 19.359-26.003 5.446-10.162 16.17-17.061 28.407-16.959 8.912-4.606 19.067-7.12 29.801-6.905 10.739.215 20.788 3.135 29.511 8.097.229 0 .458.002.688.006 12.462.25 23.113 7.698 28.166 18.269 10.609 4.091 18.047 14.565 17.807 26.571a28.083 28.083 0 0 1-.267 3.342l7.888 14.403c6.648 12.138 2.224 27.418-9.88 34.128a24.84 24.84 0 0 1-15.4 2.916c-4.488 12.641-16.64 21.661-30.74 21.378a31.594 31.594 0 0 1-9.879-1.784 31.98 31.98 0 0 1-16.992 4.459l-10.269-.206a32.086 32.086 0 0 1-9.261-1.549 16.125 16.125 0 0 1-2.109 3.781l-12.549 16.757c-5.315 7.097-15.355 8.512-22.425 3.161-7.07-5.351-8.492-15.442-3.177-22.539l7.35-9.814a32.346 32.346 0 0 1-11.217-16.006Z" clip-rule="evenodd"/>
      <path fill="#525252" d="M369.5 289.882a5.1 5.1 0 0 1 5.2-4.997l2.549.051a5.1 5.1 0 0 1 4.997 5.201 3.4 3.4 0 0 1-3.467 3.331l-5.948-.119a3.4 3.4 0 0 1-3.331-3.467Z"/>
      <rect width="10.624" height="10.624" x="353.836" y="275.967" fill="#525252" rx="5.312" transform="rotate(1.147 353.836 275.967)"/>
      <rect width="28.685" height="28.685" x="332.383" y="286.164" fill="#EED5CD" rx="14.343" transform="rotate(1.147 332.383 286.164)"/>
      <rect width="28.685" height="28.685" x="390.805" y="287.333" fill="#EED5CD" rx="14.343" transform="rotate(1.147 390.805 287.333)"/>
      <rect width="10.624" height="10.624" x="387.828" y="276.646" fill="#525252" rx="5.312" transform="rotate(1.147 387.828 276.646)"/>
    </g>
    <g filter="url(#c)">
      <mask id="d" width="44.585" height="47.229" x="372.086" y="296.768" fill="#000" maskUnits="userSpaceOnUse">
        <path fill="#fff" d="M372.086 296.768h44.585v47.229h-44.585z"/>
        <path fill-rule="evenodd" d="M399.309 308.793c.044-2.196-1.142-3.864-2.502-4.841-1.317-.945-2.91-1.369-4.418-1.403-1.458-.033-3.049.289-4.363.911-.653.309-1.465.799-2.135 1.568-.709.812-1.411 2.147-1.16 3.823a6.05 6.05 0 0 0 .501 1.681c-.124.016-.245.033-.363.052-1.283.207-2.813.648-4.124 1.538-1.378.935-2.822 2.628-2.782 5.103.013.845.177 1.819.689 2.772a5.625 5.625 0 0 0 2.116 2.18c.127.076.257.147.389.213-.081.07-.159.141-.236.215a5.624 5.624 0 0 0-1.575 2.598c-.286 1.043-.228 2.029-.052 2.856.515 2.421 2.301 3.748 3.853 4.351 1.477.574 3.067.662 4.364.577l.233-.018c-.003.193.003.39.019.592.131 1.689 1.114 2.833 1.985 3.466.826.6 1.727.896 2.433 1.051 1.419.312 3.042.271 4.455-.087 1.463-.371 2.921-1.141 3.993-2.357 1.007-1.142 1.746-2.81 1.469-4.706a7.145 7.145 0 0 0 7.511-8.979l-.08-.298a7.491 7.491 0 0 0-1.211-2.507l-.022-.029a.173.173 0 0 1-.024-.16l.087-.243a7.744 7.744 0 0 0 .432-2.058l.033-.471a7.248 7.248 0 0 0-6.048-7.666 7.181 7.181 0 0 0-3.467.276Zm-8.853 18.931c-.303.277-.6.574-.88.891-.612.37-1.424.571-2.311.63-1.964.129-3.959-.353-4.303-1.967-.343-1.613.647-2.49 3.458-3.364 2.364-.735 4.095-.269 4.282 2.57.031.481-.059.893-.246 1.24Zm3.593 1.9c-.272.204-.519.4-.745.591a6.071 6.071 0 0 1-1.165 1.183c-.49.644-.686 1.244-.637 1.873.09 1.162 2.465 1.528 4.213 1.084 1.748-.443 2.977-1.728 2.631-3.092-.747-2.091-2.73-2.816-4.297-1.639Zm-8.583-15.337c1.942-.314 3.68.139 3.968 1.922.453 2.808-1.13 3.65-3.599 3.462-2.935-.223-4.096-.856-4.123-2.505-.026-1.65 1.812-2.566 3.754-2.879Zm10.094-5.563c-.261 2.204-2.032 3.355-3.822 2.558-2.161-.961-3.126-1.832-3.298-2.985-.172-1.153 2.06-2.04 3.864-1.999 1.803.041 3.287 1.019 3.256 2.426Zm9.267 8.728c.122-.343.197-.701.223-1.064l.034-.471a3.499 3.499 0 0 0-2.919-3.7 3.369 3.369 0 0 0-2.214.379c-2.939 1.664-3.898 2.7-5.303 4.216l-.234.252c-.919.989-1.396 2.323-1.244 3.665a4.507 4.507 0 0 0 2.003 3.245c1.809 1.196 2.795 1.808 6.476 3.056.702.238 1.464.23 2.165-.012a3.397 3.397 0 0 0 2.173-4.095l-.08-.298a3.716 3.716 0 0 0-.604-1.25l-.021-.029a3.922 3.922 0 0 1-.542-3.651l.087-.243Z" clip-rule="evenodd"/>
      </mask>
      <path fill="#fff" fill-rule="evenodd" d="M399.309 308.793c.044-2.196-1.142-3.864-2.502-4.841-1.317-.945-2.91-1.369-4.418-1.403-1.458-.033-3.049.289-4.363.911-.653.309-1.465.799-2.135 1.568-.709.812-1.411 2.147-1.16 3.823a6.05 6.05 0 0 0 .501 1.681c-.124.016-.245.033-.363.052-1.283.207-2.813.648-4.124 1.538-1.378.935-2.822 2.628-2.782 5.103.013.845.177 1.819.689 2.772a5.625 5.625 0 0 0 2.116 2.18c.127.076.257.147.389.213-.081.07-.159.141-.236.215a5.624 5.624 0 0 0-1.575 2.598c-.286 1.043-.228 2.029-.052 2.856.515 2.421 2.301 3.748 3.853 4.351 1.477.574 3.067.662 4.364.577l.233-.018c-.003.193.003.39.019.592.131 1.689 1.114 2.833 1.985 3.466.826.6 1.727.896 2.433 1.051 1.419.312 3.042.271 4.455-.087 1.463-.371 2.921-1.141 3.993-2.357 1.007-1.142 1.746-2.81 1.469-4.706a7.145 7.145 0 0 0 7.511-8.979l-.08-.298a7.491 7.491 0 0 0-1.211-2.507l-.022-.029a.173.173 0 0 1-.024-.16l.087-.243a7.744 7.744 0 0 0 .432-2.058l.033-.471a7.248 7.248 0 0 0-6.048-7.666 7.181 7.181 0 0 0-3.467.276Zm-8.853 18.931c-.303.277-.6.574-.88.891-.612.37-1.424.571-2.311.63-1.964.129-3.959-.353-4.303-1.967-.343-1.613.647-2.49 3.458-3.364 2.364-.735 4.095-.269 4.282 2.57.031.481-.059.893-.246 1.24Zm3.593 1.9c-.272.204-.519.4-.745.591a6.071 6.071 0 0 1-1.165 1.183c-.49.644-.686 1.244-.637 1.873.09 1.162 2.465 1.528 4.213 1.084 1.748-.443 2.977-1.728 2.631-3.092-.747-2.091-2.73-2.816-4.297-1.639Zm-8.583-15.337c1.942-.314 3.68.139 3.968 1.922.453 2.808-1.13 3.65-3.599 3.462-2.935-.223-4.096-.856-4.123-2.505-.026-1.65 1.812-2.566 3.754-2.879Zm10.094-5.563c-.261 2.204-2.032 3.355-3.822 2.558-2.161-.961-3.126-1.832-3.298-2.985-.172-1.153 2.06-2.04 3.864-1.999 1.803.041 3.287 1.019 3.256 2.426Zm9.267 8.728c.122-.343.197-.701.223-1.064l.034-.471a3.499 3.499 0 0 0-2.919-3.7 3.369 3.369 0 0 0-2.214.379c-2.939 1.664-3.898 2.7-5.303 4.216l-.234.252c-.919.989-1.396 2.323-1.244 3.665a4.507 4.507 0 0 0 2.003 3.245c1.809 1.196 2.795 1.808 6.476 3.056.702.238 1.464.23 2.165-.012a3.397 3.397 0 0 0 2.173-4.095l-.08-.298a3.716 3.716 0 0 0-.604-1.25l-.021-.029a3.922 3.922 0 0 1-.542-3.651l.087-.243Z" clip-rule="evenodd"/>
      <path fill="#fff" d="m399.309 308.793.64 1.895-2.697.911.057-2.846 2 .04Zm-2.502-4.841 1.166-1.624-1.166 1.624Zm-4.418-1.403.045-2-.045 2Zm-4.363.911-.856-1.807.856 1.807Zm-2.135 1.568 1.507 1.314-1.507-1.314Zm-1.16 3.823 1.978-.296-1.978.296Zm.501 1.681 1.812-.845 1.156 2.479-2.713.349-.255-1.983Zm-.363.052-.319-1.974.319 1.974Zm-4.124 1.538 1.123 1.655-1.123-1.655Zm-2.782 5.103 2-.032-2 .032Zm.689 2.772 1.761-.947-1.761.947Zm2.116 2.18 1.021-1.719-1.021 1.719Zm.389.213.901-1.785 2.67 1.347-2.265 1.953-1.306-1.515Zm-.236.215-1.381-1.448 1.381 1.448Zm-1.575 2.598 1.929.529-1.929-.529Zm-.052 2.856-1.956.416 1.956-.416Zm3.853 4.351-.725 1.864.725-1.864Zm4.364.577.131 1.995-.131-1.995Zm.233-.018-.171-1.993 2.206-.19-.035 2.215-2-.032Zm.019.592 1.994-.155-1.994.155Zm1.985 3.466 1.176-1.618-1.176 1.618Zm2.433 1.051-.43 1.953.43-1.953Zm4.455-.087.492 1.938-.492-1.938Zm3.993-2.357 1.5 1.323-1.5-1.323Zm1.469-4.706-1.979.289-.365-2.5 2.517.218-.173 1.993Zm2.939-.364-.652-1.891.652 1.891Zm4.572-8.615-1.932.519 1.932-.519Zm-.08-.298 1.931-.52-1.931.52Zm-1.211-2.507 1.607-1.19-1.607 1.19Zm-.022-.029-1.607 1.189h-.001l1.608-1.189Zm-.024-.16-1.883-.672 1.883.672Zm.087-.243 1.884.672-1.884-.672Zm.432-2.058 1.995.142-1.995-.142Zm.033-.471 1.995.142-1.995-.142Zm-6.048-7.666-.326 1.973.326-1.973Zm-13.2 20.098 1.5 1.323-.203.23-.262.158-1.035-1.711Zm.88-.891 1.762.947-.161.3-.252.23-1.349-1.477Zm-3.191 1.521-.132-1.996.132 1.996Zm-4.303-1.967 1.956-.416-1.956.416Zm3.458-3.364-.594-1.91.594 1.91Zm4.282 2.57 1.995-.131-1.995.131Zm2.602 3.731-1.604-1.194.137-.184.175-.149 1.292 1.527Zm.745-.591-1.201-1.6 1.201 1.6Zm-1.91 1.774-1.591-1.211.159-.21.209-.161 1.223 1.582Zm-.637 1.873-1.994.155 1.994-.155Zm4.213 1.084-.492-1.938.492 1.938Zm2.631-3.092 1.883-.673.032.09.024.092-1.939.491Zm-8.912-15.054 1.974-.319-1.974.319Zm-3.968-1.922-.318-1.975.318 1.975Zm.369 5.384-.151 1.994.151-1.994Zm-4.123-2.505 2-.032-2 .032Zm10.026-5.884.813-1.827-.813 1.827Zm3.822-2.558 1.999.045-.002.095-.011.094-1.986-.234Zm-7.12-.427-1.978.295 1.978-.295Zm3.864-1.999-.046 1.999.046-1.999Zm12.746 10.09-1.995-.142 1.995.142Zm-.223 1.064 1.884.672-1.884-.672Zm.257-1.535 1.995.142-1.995-.142Zm-2.919-3.7.326-1.974-.326 1.974Zm-2.214.379-.986-1.741.986 1.741Zm-5.303 4.216-1.467-1.359 1.467 1.359Zm-.234.252-1.465-1.362 1.465 1.362Zm.759 6.91 1.102-1.669-1.102 1.669Zm6.476 3.056-.642 1.894.642-1.894Zm2.165-.012-.653-1.89.653 1.89Zm2.173-4.095 1.932-.52-1.932.52Zm-.08-.298-1.931.519 1.931-.519Zm-.604-1.25 1.608-1.19-1.608 1.19Zm-.021-.029-1.608 1.189 1.608-1.189Zm-.542-3.651-1.884-.672 1.884.672Zm-7.431-8.942c.028-1.391-.711-2.488-1.669-3.176l2.333-3.249c1.763 1.265 3.396 3.503 3.336 6.505l-4-.08Zm-1.669-3.176c-.929-.668-2.111-1.002-3.297-1.029l.091-3.999c1.832.042 3.835.555 5.539 1.779l-2.333 3.249Zm-3.297-1.029c-1.161-.026-2.442.237-3.461.72l-1.712-3.615c1.608-.762 3.51-1.144 5.264-1.104l-.091 3.999Zm-3.461.72c-.508.24-1.057.585-1.484 1.074l-3.015-2.628c.914-1.049 1.99-1.684 2.787-2.061l1.712 3.615Zm-1.484 1.074c-.451.517-.828 1.285-.689 2.213l-3.957.591c-.361-2.423.666-4.325 1.631-5.432l3.015 2.628Zm-.689 2.213c.063.427.181.8.335 1.132l-3.625 1.69a8.105 8.105 0 0 1-.667-2.231l3.957-.591Zm-1.222 3.96a8.636 8.636 0 0 0-.3.044l-.637-3.949c.139-.022.281-.043.426-.062l.511 3.967Zm-.3.044c-1.116.18-2.334.55-3.319 1.218l-2.246-3.31c1.638-1.111 3.48-1.623 4.928-1.857l.637 3.949Zm-3.319 1.218c-1.027.697-1.931 1.832-1.905 3.416l-4 .064c-.053-3.366 1.93-5.616 3.659-6.79l2.246 3.31Zm-1.905 3.416c.009.615.127 1.256.45 1.857l-3.523 1.894c-.701-1.304-.91-2.612-.927-3.687l4-.064Zm.45 1.857a3.64 3.64 0 0 0 1.376 1.408l-2.042 3.439a7.63 7.63 0 0 1-2.857-2.953l3.523-1.894Zm1.376 1.408c.087.051.176.1.269.147l-1.802 3.571a8.189 8.189 0 0 1-.509-.279l2.042-3.439Zm.674 3.447c-.056.048-.11.097-.162.147l-2.761-2.895c.102-.097.206-.191.311-.281l2.612 3.029Zm-.162.147a3.636 3.636 0 0 0-1.026 1.68l-3.858-1.058a7.633 7.633 0 0 1 2.123-3.517l2.761 2.895Zm-1.026 1.68c-.181.658-.153 1.309-.025 1.911l-3.912.832c-.224-1.051-.313-2.373.079-3.801l3.858 1.058Zm-.025 1.911c.33 1.55 1.465 2.453 2.622 2.903l-1.45 3.728c-1.947-.757-4.383-2.506-5.084-5.799l3.912-.832Zm2.622 2.903c1.109.431 2.379.519 3.507.445l.263 3.991c-1.464.097-3.374.01-5.22-.708l1.45-3.728Zm3.507.445.194-.015.343 3.986a9.07 9.07 0 0 1-.274.02l-.263-3.991Zm2.365 2.01c-.002.13.002.265.013.405l-3.988.31a8.177 8.177 0 0 1-.024-.779l3.999.064Zm.013.405c.072.936.612 1.6 1.167 2.003l-2.351 3.237c-1.189-.864-2.615-2.487-2.804-4.93l3.988-.31Zm1.167 2.003c.525.382 1.138.595 1.686.716l-.859 3.906c-.862-.19-2.053-.568-3.178-1.385l2.351-3.237Zm1.686.716c1.102.242 2.409.212 3.535-.073l.983 3.877c-1.701.432-3.64.485-5.377.102l.859-3.906Zm3.535-.073c1.15-.292 2.227-.882 2.984-1.74l3 2.645c-1.387 1.573-3.225 2.522-5.001 2.972l-.983-3.877Zm2.984-1.74c.71-.805 1.164-1.904.99-3.095l3.958-.578c.38 2.601-.643 4.838-1.948 6.318l-3-2.645Zm3.142-5.377a5.13 5.13 0 0 0 2.114-.262l1.304 3.781a9.123 9.123 0 0 1-3.763.466l.345-3.985Zm2.114-.262a5.148 5.148 0 0 0 3.292-6.205l3.863-1.039a9.148 9.148 0 0 1-5.851 11.025l-1.304-3.781Zm3.292-6.205-.08-.298 3.863-1.039.08.298-3.863 1.039Zm-.08-.298a5.475 5.475 0 0 0-.887-1.836l3.215-2.38a9.483 9.483 0 0 1 1.535 3.177l-3.863 1.039Zm-.887-1.836-.021-.03 3.215-2.379.021.029-3.215 2.38Zm-.022-.03a2.17 2.17 0 0 1-.299-2.021l3.767 1.344a1.829 1.829 0 0 0-.252-1.702l-3.216 2.379Zm-.299-2.021.086-.243 3.768 1.344-.087.243-3.767-1.344Zm.086-.243a5.741 5.741 0 0 0 .321-1.528l3.99.284a9.794 9.794 0 0 1-.543 2.588l-3.768-1.344Zm.321-1.528.034-.471 3.989.284-.033.471-3.99-.284Zm.034-.471a5.25 5.25 0 0 0-4.38-5.551l.652-3.947a9.249 9.249 0 0 1 7.717 9.782l-3.989-.284Zm-4.38-5.551a5.18 5.18 0 0 0-2.501.198l-1.28-3.79a9.183 9.183 0 0 1 4.433-.355l-.652 3.947Zm-14.373 16.802c.335-.38.684-.727 1.031-1.044l2.697 2.953a9.732 9.732 0 0 0-.729.737l-2.999-2.646Zm-.944-.043c.702-.046 1.166-.199 1.409-.346l2.069 3.423c-.981.593-2.141.844-3.215.914l-.263-3.991Zm-2.215-.387c.004.015.001.009.01.019a.898.898 0 0 0 .303.17c.419.163 1.089.251 1.902.198l.263 3.991c-1.15.076-2.459-.012-3.615-.461-1.195-.465-2.42-1.417-2.775-3.084l3.912-.833Zm2.096-1.038c-.652.203-1.142.389-1.507.563-.37.176-.545.31-.618.379-.055.052-.019.034.002-.042.017-.062-.01-.04.027.138l-3.912.833c-.134-.629-.166-1.322.028-2.029a3.887 3.887 0 0 1 1.094-1.795c.919-.875 2.266-1.421 3.698-1.867l1.188 3.82Zm1.692.791c-.034-.525-.133-.793-.192-.907a.342.342 0 0 0-.033-.054l-.011-.015.004.003.002.002c-.002-.001-.094-.047-.354-.039-.264.009-.63.07-1.108.219l-1.188-3.82c1.322-.411 2.987-.67 4.453.069 1.639.828 2.301 2.497 2.418 4.28l-3.991.262Zm-.012.163.002-.004.005-.018a.54.54 0 0 0 .005-.141l3.991-.262c.054.818-.098 1.609-.479 2.318l-3.524-1.893Zm3.318 1.91c.26-.22.539-.44.836-.664l2.402 3.199c-.246.185-.463.357-.654.518l-2.584-3.053Zm-1.096 1.128c.302-.234.565-.501.784-.795l3.209 2.387a8.081 8.081 0 0 1-1.546 1.572l-2.447-3.164Zm-1.408 3.61c-.095-1.222.322-2.296 1.04-3.239l3.183 2.422a1.341 1.341 0 0 0-.217.37c-.018.053-.022.09-.018.138l-3.988.309Zm6.698 2.868c-1.161.295-2.508.326-3.649.075-.569-.126-1.217-.349-1.78-.758-.588-.426-1.189-1.149-1.269-2.185l3.988-.309a1.038 1.038 0 0 0-.368-.742c-.038-.027.033.031.288.087.506.111 1.221.103 1.807-.045l.983 3.877Zm4.079-5.522c.369 1.457-.152 2.778-.969 3.705-.797.904-1.921 1.516-3.11 1.817l-.983-3.877c.561-.142.924-.395 1.092-.585.148-.168.068-.172.092-.078l3.878-.982Zm-7.437-2.748c1.301-.977 2.903-1.227 4.362-.678 1.425.537 2.483 1.744 3.019 3.244l-3.767 1.346c-.21-.59-.517-.792-.662-.846-.112-.042-.284-.067-.55.133l-2.402-3.199Zm-5.389-11.497a.493.493 0 0 0-.047-.155s-.004-.005-.017-.015a.488.488 0 0 0-.093-.049c-.237-.099-.739-.172-1.517-.047l-.637-3.949c1.164-.188 2.501-.192 3.691.303 1.315.547 2.309 1.661 2.569 3.275l-3.949.637Zm-1.472 1.15c.5.038.87.016 1.129-.035.255-.05.334-.115.336-.117l-.002.002-.003.004a.506.506 0 0 0 .028-.076c.032-.125.068-.409-.016-.928l3.949-.637c.285 1.764.013 3.538-1.4 4.712-1.263 1.049-2.944 1.168-4.324 1.063l.303-3.988Zm-2.275-.543c.003.181.035.197.005.141-.038-.07-.077-.08-.012-.041.087.051.288.142.687.231.395.088.914.16 1.595.212l-.303 3.988c-1.496-.113-2.931-.344-4.022-.992a3.895 3.895 0 0 1-1.469-1.505c-.347-.645-.47-1.328-.48-1.971l3.999-.063Zm2.073-.873c-.805.13-1.438.366-1.811.619a.904.904 0 0 0-.257.234c-.007.011-.005.004-.005.02l-3.999.063c-.027-1.705.954-2.906 2.015-3.627 1.025-.696 2.282-1.074 3.42-1.258l.637 3.949Zm6.766-6.806c.303.135.466.073.566.007.129-.086.383-.351.456-.973l3.973.469c-.187 1.583-.949 2.995-2.218 3.837-1.299.861-2.916.976-4.403.315l1.626-3.655Zm-2.133-1.453c.006.041.014.147.267.376.301.273.859.629 1.866 1.077l-1.626 3.655c-2.187-.973-4.122-2.228-4.463-4.518l3.956-.59Zm1.84.295c-.605-.013-1.303.139-1.771.36-.236.112-.293.185-.262.15.05-.058.26-.353.193-.805l-3.956.59c-.154-1.028.271-1.866.748-2.414.457-.524 1.039-.887 1.565-1.136 1.056-.5 2.376-.771 3.574-.744l-.091 3.999Zm1.302.381c-.002.097.075.075-.107-.055-.206-.148-.617-.313-1.195-.326l.091-3.999c1.225.028 2.458.373 3.437 1.076 1.004.721 1.807 1.891 1.773 3.395l-3.999-.091Zm13.485 7.852a6.038 6.038 0 0 1-.334 1.594l-3.768-1.344c.062-.172.099-.352.112-.534l3.99.284Zm.034-.471-.034.471-3.99-.284.034-.471 3.99.284Zm-4.588-5.816a5.5 5.5 0 0 1 4.588 5.816l-3.99-.284a1.499 1.499 0 0 0-1.25-1.585l.652-3.947Zm-3.526.612a5.382 5.382 0 0 1 3.526-.612l-.652 3.947a1.373 1.373 0 0 0-.902.146l-1.972-3.481Zm1.972 3.481c-2.699 1.529-3.5 2.409-4.822 3.836l-2.934-2.719c1.488-1.606 2.606-2.797 5.784-4.598l1.972 3.481Zm-4.822 3.836-.236.253-2.93-2.723.232-.249 2.934 2.719Zm-4.932 2.782c-.222-1.96.477-3.865 1.766-5.252l2.93 2.723c-.549.592-.803 1.356-.722 2.079l-3.974.45Zm2.887 4.689a6.51 6.51 0 0 1-2.887-4.689l3.974-.45a2.51 2.51 0 0 0 1.118 1.801l-2.205 3.338Zm6.937 3.281c-3.847-1.304-4.987-1.993-6.937-3.281l2.205-3.338c1.67 1.104 2.502 1.639 6.016 2.831l-1.284 3.788Zm3.459-.015a5.343 5.343 0 0 1-3.459.015l1.284-3.788c.272.092.579.092.87-.008l1.305 3.781Zm3.453-6.506a5.4 5.4 0 0 1-3.453 6.506l-1.305-3.781a1.399 1.399 0 0 0 .895-1.686l3.863-1.039Zm-.081-.298.081.298-3.863 1.039-.08-.298 3.862-1.039Zm-.927-1.92c.427.576.741 1.228.927 1.92l-3.862 1.039a1.718 1.718 0 0 0-.28-.579l3.215-2.38Zm-.022-.029.022.029-3.215 2.38-.022-.03 3.215-2.379Zm-.265-1.789a1.923 1.923 0 0 0 .265 1.789l-3.215 2.379a5.921 5.921 0 0 1-.818-5.512l3.768 1.344Zm.087-.243-.087.243-3.768-1.344.087-.243 3.768 1.344Z" mask="url(#d)"/>
      <path fill="#fff" stroke="#fff" stroke-width="2" d="m396.556 308.839.006-.047.001-.047c.025-1.104-.559-1.987-1.357-2.56-.785-.565-1.813-.864-2.876-.889-1.05-.023-2.214.218-3.124.648-.453.215-.904.505-1.239.89-.345.396-.611.951-.513 1.609.257 1.721 1.707 2.784 3.881 3.751 1.191.53 2.445.429 3.444-.234.984-.653 1.618-1.778 1.777-3.121Zm2.739 22.087.016.045.012.046c.271 1.07-.1 2.062-.75 2.799-.639.725-1.574 1.247-2.605 1.509-1.018.258-2.206.283-3.189.067-.49-.108-.994-.29-1.407-.59-.425-.309-.808-.79-.86-1.454-.134-1.735 1.041-3.095 2.944-4.524 1.042-.783 2.287-.964 3.409-.542 1.105.416 1.975 1.371 2.43 2.644Zm-8.874-14.877c-.202-1.253-.952-2.089-1.967-2.511-.951-.396-2.08-.411-3.147-.239-1.055.17-2.156.513-3.018 1.098-.88.597-1.597 1.519-1.577 2.784.009.527.109 1.043.362 1.513.256.477.635.843 1.098 1.118.876.521 2.106.743 3.587.856 1.307.099 2.655-.042 3.61-.836 1.03-.856 1.307-2.199 1.052-3.783Zm1.278 10.37c.083 1.266-.461 2.249-1.355 2.887-.838.598-1.935.866-3.014.937-1.066.07-2.216-.018-3.187-.396-.991-.385-1.896-1.123-2.159-2.36-.11-.517-.128-1.042.014-1.556.143-.523.43-.964.82-1.336.737-.703 1.886-1.195 3.305-1.636 1.252-.389 2.596-.552 3.705.007 1.195.604 1.766 1.852 1.871 3.453Zm14.352-9.959-.998-.072.998.072c-.032.453-.126.9-.279 1.329l-.087.243a2.919 2.919 0 0 0 .404 2.719l.021.03-.758.561.758-.561c.353.475.612 1.013.766 1.585l.08.298a4.398 4.398 0 0 1-2.813 5.3 4.351 4.351 0 0 1-2.811.014c-3.765-1.276-4.828-1.927-6.707-3.169a5.506 5.506 0 0 1-2.445-3.967c-.187-1.651.401-3.27 1.505-4.458l.733.68-.733-.68.224-.242c1.444-1.558 2.48-2.676 5.552-4.416a4.376 4.376 0 0 1 2.87-.495 4.497 4.497 0 0 1 3.753 4.757l-.033.472Z"/>
    </g>
    <path fill="#CDEAFF" d="M414.743 256.703a7.966 7.966 0 0 1 .787-4.658l2.378-4.698 4.53 3.646a7.464 7.464 0 0 1 2.715 4.816l.299 2.222a5.218 5.218 0 0 1-4.475 5.868 5.22 5.22 0 0 1-5.868-4.476l-.366-2.72Zm15.007 10.372a4.002 4.002 0 0 1 .396-2.342l1.195-2.362 2.277 1.833a3.754 3.754 0 0 1 1.366 2.422l.15 1.117a2.623 2.623 0 1 1-5.2.7l-.184-1.368Z"/>
    <g filter="url(#e)">
      <mask id="f" width="48.464" height="51.815" x="331.052" y="297.858" fill="#000" maskUnits="userSpaceOnUse">
        <path fill="#fff" d="M331.052 297.858h48.464v51.815h-48.464z"/>
        <path fill-rule="evenodd" d="M347.1 313.587c-.616-2.109.093-4.029 1.151-5.327 1.024-1.257 2.45-2.082 3.898-2.509 1.398-.413 3.018-.517 4.449-.26.711.127 1.623.388 2.471.955.896.599 1.922 1.704 2.118 3.387a6.072 6.072 0 0 1-.044 1.754c.126-.017.249-.032.371-.045 1.292-.135 2.884-.109 4.382.407 1.575.543 3.41 1.799 4.019 4.199.208.819.305 1.802.059 2.856a5.632 5.632 0 0 1-1.473 2.657c-.103.106-.21.209-.32.308.095.045.189.093.281.143a5.63 5.63 0 0 1 2.199 2.097c.549.932.75 1.899.796 2.743.135 2.472-1.241 4.219-2.582 5.207-1.276.94-2.788 1.44-4.061 1.696a7.942 7.942 0 0 1-.232.045c.053.186.099.378.137.577.315 1.665-.335 3.025-1.011 3.864-.64.795-1.433 1.316-2.073 1.65-1.289.672-2.866 1.057-4.324 1.08-1.509.024-3.117-.338-4.47-1.231-1.271-.84-2.42-2.257-2.648-4.16a7.15 7.15 0 0 1-9.599-6.703v-.309a7.468 7.468 0 0 1 .513-2.736l.014-.034a.175.175 0 0 0-.019-.16l-.147-.212a7.758 7.758 0 0 1-.955-1.874l-.155-.446a7.247 7.247 0 0 1 3.835-8.98 7.182 7.182 0 0 1 3.42-.639Zm13.499 15.962c.362.187.723.394 1.073.624.688.199 1.527.182 2.401.006 1.929-.388 3.73-1.375 3.64-3.022-.091-1.647-1.276-2.235-4.217-2.344-2.474-.092-4.023.81-3.462 3.6.096.474.292.849.565 1.136Zm-2.977 2.77c.318.127.611.253.881.379.432.34.911.618 1.421.831.645.494.992 1.023 1.11 1.645.216 1.145-1.98 2.118-3.784 2.147-1.803.029-3.325-.89-3.347-2.297.174-2.214 1.899-3.432 3.719-2.705Zm4.283-17.047c-1.957.205-3.516 1.096-3.328 2.892.297 2.83 2.044 3.228 4.378 2.402 2.775-.982 3.731-1.897 3.325-3.496-.406-1.599-2.419-2.003-4.375-1.798Zm-11.204-2.733c.828 2.061 2.838 2.708 4.358 1.472 1.835-1.493 2.539-2.586 2.403-3.744-.135-1.157-2.522-1.43-4.252-.92-1.729.511-2.907 1.843-2.509 3.192Zm-6.666 10.848a4.008 4.008 0 0 1-.494-.969l-.155-.446a3.499 3.499 0 0 1 1.851-4.335 3.38 3.38 0 0 1 2.236-.212c3.271.839 4.468 1.588 6.221 2.684l.29.182c1.146.715 1.955 1.878 2.159 3.213a4.511 4.511 0 0 1-1.085 3.656c-1.434 1.626-2.226 2.475-5.453 4.642a3.353 3.353 0 0 1-2.092.554 3.399 3.399 0 0 1-3.169-3.385v-.309a3.72 3.72 0 0 1 .256-1.364l.013-.034a3.92 3.92 0 0 0-.431-3.665l-.147-.212Z" clip-rule="evenodd"/>
      </mask>
      <path fill="#fff" fill-rule="evenodd" d="M347.1 313.587c-.616-2.109.093-4.029 1.151-5.327 1.024-1.257 2.45-2.082 3.898-2.509 1.398-.413 3.018-.517 4.449-.26.711.127 1.623.388 2.471.955.896.599 1.922 1.704 2.118 3.387a6.072 6.072 0 0 1-.044 1.754c.126-.017.249-.032.371-.045 1.292-.135 2.884-.109 4.382.407 1.575.543 3.41 1.799 4.019 4.199.208.819.305 1.802.059 2.856a5.632 5.632 0 0 1-1.473 2.657c-.103.106-.21.209-.32.308.095.045.189.093.281.143a5.63 5.63 0 0 1 2.199 2.097c.549.932.75 1.899.796 2.743.135 2.472-1.241 4.219-2.582 5.207-1.276.94-2.788 1.44-4.061 1.696a7.942 7.942 0 0 1-.232.045c.053.186.099.378.137.577.315 1.665-.335 3.025-1.011 3.864-.64.795-1.433 1.316-2.073 1.65-1.289.672-2.866 1.057-4.324 1.08-1.509.024-3.117-.338-4.47-1.231-1.271-.84-2.42-2.257-2.648-4.16a7.15 7.15 0 0 1-9.599-6.703v-.309a7.468 7.468 0 0 1 .513-2.736l.014-.034a.175.175 0 0 0-.019-.16l-.147-.212a7.758 7.758 0 0 1-.955-1.874l-.155-.446a7.247 7.247 0 0 1 3.835-8.98 7.182 7.182 0 0 1 3.42-.639Zm13.499 15.962c.362.187.723.394 1.073.624.688.199 1.527.182 2.401.006 1.929-.388 3.73-1.375 3.64-3.022-.091-1.647-1.276-2.235-4.217-2.344-2.474-.092-4.023.81-3.462 3.6.096.474.292.849.565 1.136Zm-2.977 2.77c.318.127.611.253.881.379.432.34.911.618 1.421.831.645.494.992 1.023 1.11 1.645.216 1.145-1.98 2.118-3.784 2.147-1.803.029-3.325-.89-3.347-2.297.174-2.214 1.899-3.432 3.719-2.705Zm4.283-17.047c-1.957.205-3.516 1.096-3.328 2.892.297 2.83 2.044 3.228 4.378 2.402 2.775-.982 3.731-1.897 3.325-3.496-.406-1.599-2.419-2.003-4.375-1.798Zm-11.204-2.733c.828 2.061 2.838 2.708 4.358 1.472 1.835-1.493 2.539-2.586 2.403-3.744-.135-1.157-2.522-1.43-4.252-.92-1.729.511-2.907 1.843-2.509 3.192Zm-6.666 10.848a4.008 4.008 0 0 1-.494-.969l-.155-.446a3.499 3.499 0 0 1 1.851-4.335 3.38 3.38 0 0 1 2.236-.212c3.271.839 4.468 1.588 6.221 2.684l.29.182c1.146.715 1.955 1.878 2.159 3.213a4.511 4.511 0 0 1-1.085 3.656c-1.434 1.626-2.226 2.475-5.453 4.642a3.353 3.353 0 0 1-2.092.554 3.399 3.399 0 0 1-3.169-3.385v-.309a3.72 3.72 0 0 1 .256-1.364l.013-.034a3.92 3.92 0 0 0-.431-3.665l-.147-.212Z" clip-rule="evenodd"/>
      <path fill="#fff" d="m347.1 313.587-.123 1.996 2.842.176-.799-2.734-1.92.562Zm1.151-5.327 1.55 1.263-1.55-1.263Zm3.898-2.509-.567-1.919.567 1.919Zm4.449-.26.354-1.969-.354 1.969Zm2.471.955-1.112 1.662 1.112-1.662Zm2.118 3.387-1.986.232 1.986-.232Zm-.044 1.754-1.971-.342-.468 2.697 2.712-.373-.273-1.982Zm.371-.045-.209-1.989.209 1.989Zm4.382.407-.652 1.891.652-1.891Zm4.019 4.199-1.938.492 1.938-.492Zm.059 2.856-1.948-.454 1.948.454Zm-1.473 2.657 1.436 1.393-1.436-1.393Zm-.32.308-1.336-1.489-2.224 1.997 2.694 1.294.866-1.802Zm.281.143-.954 1.758.954-1.758Zm2.199 2.097-1.723 1.014 1.723-1.014Zm.796 2.743 1.997-.109-1.997.109Zm-2.582 5.207 1.187 1.61-1.187-1.61Zm-4.061 1.696.395 1.961-.395-1.961Zm-.232.045-.355-1.969-2.18.393.613 2.129 1.922-.553Zm.137.577 1.965-.372-1.965.372Zm-1.011 3.864-1.558-1.254 1.558 1.254Zm-2.073 1.65-.926-1.773.926 1.773Zm-4.324 1.08-.033-2 .033 2Zm-4.47-1.231-1.102 1.668 1.102-1.668Zm-2.648-4.16 1.986-.238-.301-2.509-2.373.869.688 1.878Zm-2.935.418.136-1.996-.136 1.996Zm-6.664-7.121 2-.003-2 .003Zm0-.309-2 .003 2-.003Zm.513-2.736 1.863.728-1.863-.728Zm.014-.034 1.862.728-1.862-.728Zm-.019-.16 1.643-1.141-1.643 1.141Zm-.147-.212-1.643 1.141 1.643-1.141Zm-.955-1.874-1.888.659 1.888-.659Zm-.155-.446 1.888-.658-1.888.658Zm3.835-8.98.83 1.819-.83-1.819Zm17.992 15.947-1.102 1.67.254.168.293.084.555-1.922Zm-1.073-.624-1.45 1.378.233.245.3.155.917-1.778Zm3.474.63.395 1.961-.395-1.961Zm3.64-3.022 1.997-.11-1.997.11Zm-4.217-2.344.074-1.999-.074 1.999Zm-3.462 3.6 1.961-.395-1.961.395Zm-1.531 4.285 1.235-1.573-.18-.141-.206-.097-.849 1.811Zm-.881-.379-.742 1.857.742-1.857Zm2.302 1.21 1.218-1.587-.207-.159-.241-.1-.77 1.846Zm1.11 1.645-1.965.372 1.965-.372Zm-3.784 2.147.032 2-.032-2Zm-3.347-2.297-1.994-.158-.008.095.002.095 2-.032Zm4.674-16.86-1.989.208 1.989-.208Zm4.378 2.402.668 1.885-.668-1.885Zm3.325-3.496 1.939-.492-1.939.492Zm-11.221-3.059 1.262 1.551-1.262-1.551Zm-4.358-1.472-1.918.567.027.091.035.088 1.856-.746Zm2.509-3.192.567 1.918-.567-1.918Zm-9.669 13.071-1.888.658 1.888-.658Zm.494.969-1.643 1.141 1.643-1.141Zm-.649-1.415-1.889.658 1.889-.658Zm1.851-4.335-.831-1.819.831 1.819Zm2.236-.212.496-1.937-.496 1.937Zm6.221 2.684-1.061 1.696 1.061-1.696Zm.29.182-1.058 1.697 1.058-1.697Zm1.074 6.869-1.5-1.323 1.5 1.323Zm-5.453 4.642-1.115-1.661 1.115 1.661Zm-2.092.554.135-1.995-.135 1.995Zm-3.169-3.385-2 .003 2-.003Zm0-.309 2-.003-2 .003Zm.256-1.364-1.863-.729 1.863.729Zm.013-.034 1.863.728-1.863-.728Zm-.431-3.665 1.643-1.141-1.643 1.141Zm4.838-10.574c-.391-1.335.036-2.588.781-3.502l-3.101-2.527c-1.371 1.683-2.362 4.27-1.519 7.152l3.839-1.123Zm.781-3.502c.723-.887 1.776-1.518 2.914-1.854l-1.133-3.837c-1.757.519-3.557 1.538-4.882 3.164l3.101 2.527Zm2.914-1.854c1.114-.329 2.419-.409 3.529-.21l.708-3.937c-1.752-.315-3.687-.187-5.37.31l1.133 3.837Zm3.529-.21c.553.099 1.173.289 1.713.649l2.224-3.325c-1.157-.773-2.361-1.105-3.229-1.261l-.708 3.937Zm1.713.649c.57.382 1.135 1.024 1.244 1.957l3.973-.464c-.284-2.434-1.772-4.001-2.993-4.818l-2.224 3.325Zm1.244 1.957c.05.428.034.819-.029 1.18l3.941.684a8.076 8.076 0 0 0 .061-2.328l-3.973.464Zm2.215 3.504c.103-.015.206-.027.306-.038l-.417-3.978c-.142.015-.287.033-.435.053l.546 3.963Zm.306-.038c1.125-.117 2.397-.079 3.522.309l1.304-3.782c-1.872-.645-3.783-.658-5.243-.505l.417 3.978Zm3.522.309c1.174.405 2.343 1.263 2.733 2.8l3.877-.984c-.828-3.263-3.331-4.917-5.306-5.598l-1.304 3.782Zm2.733 2.8c.151.596.204 1.245.049 1.91l3.896.907c.336-1.442.196-2.759-.068-3.801l-3.877.984Zm.049 1.91a3.625 3.625 0 0 1-.96 1.718l2.871 2.786a7.637 7.637 0 0 0 1.985-3.597l-3.896-.907Zm-.96 1.718a4.06 4.06 0 0 1-.221.212l2.673 2.977c.142-.128.282-.262.419-.403l-2.871-2.786Zm.249 3.503c.066.032.131.065.193.099l1.908-3.516a8.002 8.002 0 0 0-.369-.188l-1.732 3.605Zm.193.099a3.639 3.639 0 0 1 1.43 1.353l3.447-2.029a7.635 7.635 0 0 0-2.969-2.84l-1.908 3.516Zm1.43 1.353c.346.589.489 1.224.522 1.838l3.994-.218c-.059-1.074-.318-2.373-1.069-3.649l-3.447 2.029Zm.522 1.838c.087 1.583-.772 2.751-1.772 3.488l2.374 3.22c1.681-1.24 3.576-3.565 3.392-6.926l-3.994.218Zm-1.772 3.488c-.958.706-2.16 1.123-3.269 1.346l.79 3.921c1.438-.29 3.259-.873 4.853-2.047l-2.374-3.22Zm-3.269 1.346a5.45 5.45 0 0 1-.192.036l.709 3.937.273-.052-.79-3.921Zm-1.759 2.558c.036.126.067.257.093.395l3.931-.743a8.66 8.66 0 0 0-.18-.759l-3.844 1.107Zm.093.395c.175.923-.172 1.704-.603 2.239l3.115 2.509c.922-1.144 1.874-3.084 1.419-5.491l-3.931.743Zm-.603 2.239c-.407.505-.943.871-1.441 1.131l1.851 3.546c.782-.408 1.832-1.085 2.705-2.168l-3.115-2.509Zm-1.441 1.131c-1 .522-2.269.835-3.431.853l.065 4c1.755-.029 3.639-.484 5.217-1.307l-1.851-3.546Zm-3.431.853c-1.186.019-2.379-.269-3.334-.9l-2.205 3.337c1.75 1.157 3.772 1.592 5.604 1.563l-.065-4Zm-3.334-.9c-.896-.592-1.622-1.534-1.765-2.729l-3.972.476c.313 2.61 1.885 4.502 3.532 5.59l2.205-3.337Zm-4.439-4.369a5.125 5.125 0 0 1-2.111.3l-.271 3.991a9.127 9.127 0 0 0 3.758-.535l-1.376-3.756Zm-2.111.3a5.15 5.15 0 0 1-4.8-5.128l-4 .006a9.15 9.15 0 0 0 8.529 9.113l.271-3.991Zm-4.8-5.128v-.309l-4 .006v.309l4-.006Zm0-.309a5.48 5.48 0 0 1 .376-2.005l-3.725-1.457a9.483 9.483 0 0 0-.651 3.468l4-.006Zm.376-2.005.013-.034-3.725-1.457-.013.034 3.725 1.457Zm.013-.034a2.169 2.169 0 0 0-.238-2.029l-3.286 2.282a1.828 1.828 0 0 1-.201-1.709l3.725 1.456Zm-.238-2.029-.148-.212-3.285 2.282.147.212 3.286-2.282Zm-.148-.212a5.754 5.754 0 0 1-.708-1.391l-3.777 1.317a9.766 9.766 0 0 0 1.2 2.356l3.285-2.282Zm-.708-1.391-.156-.446-3.777 1.316.156.447 3.777-1.317Zm-.156-.446a5.25 5.25 0 0 1 2.777-6.503l-1.661-3.639a9.249 9.249 0 0 0-4.893 11.458l3.777-1.316Zm2.777-6.503a5.192 5.192 0 0 1 2.467-.462l.247-3.992a9.191 9.191 0 0 0-4.375.815l1.661 3.639Zm18.263 12.459a13.588 13.588 0 0 0-1.257-.732l-1.834 3.555c.31.16.608.331.888.516l2.203-3.339Zm.906-.286c-.691.14-1.18.113-1.453.034l-1.109 3.843c1.105.319 2.293.258 3.351.045l-.789-3.922Zm2.037-.952c0 .016.002.009-.005.021-.016.028-.077.117-.248.243-.362.267-.985.527-1.784.688l.789 3.922c1.129-.228 2.371-.655 3.369-1.39 1.032-.761 1.966-2 1.873-3.703l-3.994.219Zm-2.294-.454c.682.025 1.204.076 1.601.149.403.074.607.157.696.205.066.036.027.028-.013-.04-.033-.055 0-.041.01.14l3.994-.219c-.036-.642-.185-1.319-.557-1.95a3.89 3.89 0 0 0-1.526-1.447c-1.115-.605-2.558-.78-4.057-.836l-.148 3.998Zm-1.427 1.206c-.104-.516-.079-.801-.052-.927a.384.384 0 0 1 .025-.077l-.003.004-.002.002c.002-.001.079-.069.332-.13.256-.061.626-.097 1.127-.078l.148-3.998c-1.383-.051-3.059.133-4.28 1.231-1.366 1.227-1.569 3.011-1.216 4.762l3.921-.789Zm.054.154-.003-.004a.474.474 0 0 1-.051-.15l-3.921.789c.162.807.518 1.534 1.075 2.12l2.9-2.755Zm-2.697 2.715a18.81 18.81 0 0 0-.989-.426l-1.483 3.715c.289.115.545.226.773.333l1.699-3.622Zm1.342.796a4.097 4.097 0 0 1-.956-.558l-2.471 3.146c.58.455 1.216.823 1.888 1.104l1.539-3.692Zm2.305 3.119c-.229-1.207-.915-2.137-1.857-2.86l-2.435 3.173c.187.144.271.247.308.302a.319.319 0 0 1 .054.129l3.93-.744Zm-5.717 4.519c1.199-.019 2.507-.341 3.543-.882.516-.269 1.084-.654 1.52-1.196.455-.565.847-1.42.654-2.441l-3.93.744c-.085-.449.113-.753.161-.812.029-.037-.024.038-.256.159-.459.239-1.151.419-1.756.429l.064 3.999Zm-5.379-4.265c.024 1.504.872 2.642 1.903 3.324 1.005.664 2.251.961 3.476.941l-.064-3.999c-.578.009-.995-.14-1.207-.28-.186-.123-.11-.148-.109-.051l-3.999.065Zm6.46-4.595c-1.511-.603-3.123-.426-4.387.485-1.236.891-1.942 2.332-2.067 3.92l3.987.315c.05-.625.294-.899.419-.99.097-.069.257-.138.565-.015l1.483-3.715Zm2.203-12.506a.59.59 0 0 1-.001-.136l.004-.02.002-.006s.002-.006.013-.018a.435.435 0 0 1 .077-.072c.203-.157.668-.36 1.452-.442l-.417-3.978c-1.173.123-2.465.468-3.484 1.257-1.126.872-1.794 2.206-1.624 3.832l3.978-.417Zm1.722.725c-.473.168-.836.244-1.099.262-.259.018-.353-.024-.355-.025l.002.001.004.003-.012-.013-.035-.053c-.063-.112-.172-.376-.227-.9l-3.978.417c.186 1.777.912 3.419 2.583 4.183 1.493.682 3.147.358 4.452-.104l-1.335-3.771Zm2.054-1.118c.044.176.018.199.032.137.018-.077.053-.096.001-.043-.07.073-.241.213-.603.404-.358.188-.84.393-1.484.62l1.335 3.771c1.414-.5 2.739-1.098 3.622-2.009a3.882 3.882 0 0 0 1.025-1.836c.166-.713.107-1.404-.051-2.028l-3.877.984Zm-2.229-.301c.811-.085 1.484-.022 1.909.125.2.068.285.135.309.158.01.009.007.003.011.018l3.877-.984c-.42-1.653-1.681-2.556-2.893-2.974-1.172-.404-2.484-.441-3.63-.321l.417 3.978Zm-8.317-4.801c-.257.209-.431.192-.544.154-.147-.049-.461-.238-.695-.82l-3.712 1.491c.594 1.478 1.698 2.643 3.144 3.124 1.478.492 3.069.18 4.332-.847l-2.525-3.102Zm1.68-1.961c.005.041.025.146-.159.433-.22.343-.666.832-1.521 1.528l2.525 3.102c1.857-1.51 3.396-3.227 3.128-5.526l-3.973.463Zm-1.699.766c.58-.171 1.294-.206 1.804-.115.257.046.33.102.292.076a1.04 1.04 0 0 1-.397-.727l3.973-.463c-.121-1.033-.749-1.732-1.353-2.135-.578-.387-1.235-.585-1.808-.688-1.15-.206-2.494-.123-3.644.216l1.133 3.836Zm-1.157.708c.027.093-.053.092.088-.081.161-.197.514-.463 1.069-.627l-1.133-3.836c-1.175.347-2.275 1.002-3.037 1.936-.78.958-1.25 2.298-.824 3.741l3.837-1.133Zm-10.967 11.103c.179.515.428 1.004.739 1.452l3.286-2.282a1.98 1.98 0 0 1-.248-.487l-3.777 1.317Zm-.156-.446.156.446 3.777-1.317-.156-.446-3.777 1.317Zm2.909-6.812a5.5 5.5 0 0 0-2.909 6.812l3.777-1.317a1.499 1.499 0 0 1 .793-1.856l-1.661-3.639Zm3.563-.33a5.38 5.38 0 0 0-3.563.33l1.661 3.639c.308-.141.631-.166.909-.095l.993-3.874Zm-.993 3.874c3.004.771 4.007 1.411 5.657 2.443l2.121-3.391c-1.856-1.161-3.246-2.019-6.785-2.926l-.993 3.874Zm5.657 2.443.293.183 2.117-3.394-.289-.18-2.121 3.391Zm5.487 1.397c-.298-1.95-1.471-3.606-3.077-4.608l-2.117 3.394c.685.427 1.13 1.099 1.24 1.818l3.954-.604Zm-1.562 5.28a6.506 6.506 0 0 0 1.562-5.28l-3.954.604c.11.719-.11 1.466-.608 2.031l3 2.645Zm-5.839 4.98c3.374-2.264 4.294-3.227 5.839-4.98l-3-2.645c-1.324 1.501-1.987 2.236-5.068 4.304l2.229 3.321Zm-3.342.889c1.17.08 2.35-.223 3.342-.889l-2.229-3.321c-.238.16-.534.24-.842.22l-.271 3.99Zm-5.033-5.377a5.398 5.398 0 0 0 5.033 5.377l.271-3.99a1.4 1.4 0 0 1-1.304-1.394l-4 .007Zm0-.309v.309l4-.007v-.308l-4 .006Zm.393-2.096a5.737 5.737 0 0 0-.393 2.096l4-.006c0-.217.04-.431.119-.633l-3.726-1.457Zm.014-.034-.014.034 3.726 1.457.013-.034-3.725-1.457Zm-.212-1.796c.366.526.445 1.2.212 1.796l3.725 1.457a5.92 5.92 0 0 0-.651-5.534l-3.286 2.281Zm-.147-.211.147.211 3.286-2.281-.147-.212-3.286 2.282Z" mask="url(#f)"/>
      <path fill="#fff" stroke="#fff" stroke-width="2" d="m349.77 312.912-.017-.044-.014-.045c-.312-1.059.02-2.064.64-2.826.611-.75 1.525-1.308 2.545-1.609 1.007-.297 2.194-.368 3.184-.19.494.088 1.005.251 1.429.534.437.292.838.759.915 1.42.202 1.728-.919 3.133-2.766 4.635-1.011.822-2.247 1.052-3.385.673-1.12-.373-2.027-1.293-2.531-2.548Zm3.132 22.033-.003.047v.048c.018 1.103.635 1.963 1.455 2.505.807.533 1.845.793 2.909.776 1.05-.017 2.204-.303 3.096-.769.444-.232.884-.539 1.204-.936.329-.41.574-.974.45-1.628-.324-1.71-1.814-2.716-4.024-3.598-1.21-.484-2.459-.334-3.432.367-.958.691-1.548 1.84-1.655 3.188Zm4.677-16.679c-.132-1.262.373-2.265 1.242-2.937.815-.631 1.901-.94 2.976-1.053 1.062-.111 2.214-.068 3.2.272 1.005.346 1.938 1.048 2.249 2.275.13.511.168 1.035.046 1.555a2.884 2.884 0 0 1-.767 1.366c-.71.731-1.839 1.267-3.239 1.763-1.236.437-2.574.653-3.703.137-1.218-.557-1.837-1.782-2.004-3.378Zm1.474 10.344c.251 1.244 1.033 2.051 2.063 2.433.966.359 2.094.33 3.154.117 1.047-.211 2.134-.596 2.973-1.215.856-.631 1.537-1.579 1.468-2.842-.029-.527-.15-1.039-.42-1.499a2.897 2.897 0 0 0-1.141-1.074c-.896-.486-2.133-.661-3.618-.716-1.31-.048-2.65.145-3.574.975-.996.895-1.221 2.248-.905 3.821Zm-16.455-5.863.945-.329-.945.329c.15.43.358.837.617 1.211l.147.211c.556.8.676 1.824.321 2.731l-.013.034.879.343-.879-.343a4.739 4.739 0 0 0-.325 1.73l.001.309a4.4 4.4 0 0 0 4.1 4.381 4.34 4.34 0 0 0 2.717-.722c3.301-2.215 4.157-3.121 5.646-4.811a5.505 5.505 0 0 0 1.324-4.467c-.251-1.643-1.242-3.052-2.618-3.911l-.529.849.529-.849-.28-.174c-1.8-1.127-3.093-1.935-6.513-2.812a4.375 4.375 0 0 0-2.899.271 4.499 4.499 0 0 0-2.38 5.573l.155.446Z"/>
    </g>
    <path fill="#F6F1ED" d="M303.665 384.665a18 18 0 0 1 16.177-16.245l3.633-.354c9.048-.882 17.333 5.122 19.313 13.994l2.851 12.774c2.406 10.78-5.375 21.164-16.397 21.882l-7.689.501c-11.048.72-20.12-8.609-19.093-19.632l1.205-12.92Zm109.406-6.44a18.002 18.002 0 0 1 19.052-12.753l3.632.367c9.045.912 15.99 8.425 16.19 17.513l.288 13.084c.243 11.043-9.426 19.698-20.375 18.238l-7.637-1.018c-10.974-1.463-18.038-12.392-14.867-22.998l3.717-12.433Z"/>
    <path fill="#E4CAB1" d="M333.065 399.62c-2.361-4.274-3.337-5.357-5.218-7.329a5.66 5.66 0 0 0-4.457-1.755c-1.693.11-3.237.996-4.256 2.353-1.707 2.272-2.813 3.618-4.294 7.839a4.234 4.234 0 0 0 .023 2.821 4.395 4.395 0 0 0 5.224 2.788l.575-.147a5.042 5.042 0 0 0 1.266-.512l.282-.161a4.925 4.925 0 0 1 4.634-.142l.041.02c.525.26 1.095.419 1.68.469l.386.033a4.27 4.27 0 0 0 4.581-3.598 4.206 4.206 0 0 0-.467-2.679Zm-24.998-5.089c.451 2.22 1.99 3.839 3.723 3.487 2.668-.812 3.697-3.258 2.315-5.294-1.67-2.459-2.961-3.459-4.425-3.415-1.464.043-2.065 3.001-1.613 5.222Zm30.781-2.006c-.159 2.26-1.476 4.065-3.239 3.94-2.751-.459-4.089-2.75-2.982-4.949 1.336-2.654 2.487-3.813 3.944-3.96 1.457-.147 2.437 2.708 2.277 4.969Zm-24.016-6.331c.044 2.471.989 4.519 3.258 4.479 3.574-.064 4.262-2.208 3.482-5.219-.928-3.58-1.97-4.875-4.015-4.541-2.045.334-2.769 2.81-2.725 5.281Zm16.634-1.084c.277 2.457-.395 4.61-2.649 4.864-3.552.4-4.513-1.636-4.13-4.723.456-3.67 1.32-5.09 3.392-5.024 2.071.066 3.111 2.427 3.387 4.883Zm107.461 13.551c-1.476-4.655-2.221-5.909-3.677-8.212a5.666 5.666 0 0 0-4.027-2.595c-1.681-.225-3.369.341-4.635 1.471-2.12 1.894-3.468 2.996-5.749 6.844a4.246 4.246 0 0 0-.532 2.771 4.397 4.397 0 0 0 4.576 3.759l.592-.031a5.04 5.04 0 0 0 1.343-.254l.307-.103a4.926 4.926 0 0 1 4.572.771l.036.028c.465.358.992.626 1.555.789l.373.109a4.27 4.27 0 0 0 5.198-2.629c.321-.874.35-1.831.068-2.718Zm-23.514-9.898c.006 2.266 1.198 4.155 2.966 4.15 2.776-.272 4.265-2.468 3.309-4.736-1.154-2.739-2.225-3.973-3.668-4.218-1.444-.244-2.614 2.538-2.607 4.804Zm30.578 4.077c-.6 2.185-2.245 3.696-3.949 3.228-2.608-.99-3.47-3.5-1.953-5.438 1.831-2.341 3.188-3.251 4.645-3.109 1.457.142 1.857 3.134 1.257 5.319Zm-22.303-10.922c-.442 2.432.083 4.625 2.316 5.031 3.517.639 4.612-1.328 4.438-4.434-.207-3.692-.974-5.167-3.045-5.241-2.071-.074-3.267 2.212-3.709 4.644Zm16.522 2.201c-.21 2.463-1.292 4.443-3.552 4.249-3.562-.305-4.104-2.49-3.122-5.442 1.167-3.508 2.293-4.731 4.311-4.26 2.018.472 2.574 2.991 2.363 5.453Z"/>
    <g filter="url(#g)">
      <rect width="53.044" height="32.108" fill="#fff" rx="16.054" transform="matrix(.64102 .76752 -.76425 .64492 406.648 311.363)"/>
    </g>
  </g>
  <defs>
    <filter id="b" width="180.367" height="161.986" x="288.68" y="210.559" color-interpolation-filters="sRGB" filterUnits="userSpaceOnUse">
      <feFlood flood-opacity="0" result="BackgroundImageFix"/>
      <feColorMatrix in="SourceAlpha" result="hardAlpha" values="0 0 0 0 0 0 0 0 0 0 0 0 0 0 0 0 0 0 127 0"/>
      <feOffset dx="2" dy="3"/>
      <feGaussianBlur stdDeviation="1"/>
      <feComposite in2="hardAlpha" operator="out"/>
      <feColorMatrix values="0 0 0 0 0 0 0 0 0 0 0 0 0 0 0 0 0 0 0.1 0"/>
      <feBlend in2="BackgroundImageFix" result="effect1_dropShadow_37_148235"/>
      <feBlend in="SourceGraphic" in2="effect1_dropShadow_37_148235" result="shape"/>
    </filter>
    <filter id="c" width="37.898" height="41.742" x="373.961" y="298.546" color-interpolation-filters="sRGB" filterUnits="userSpaceOnUse">
      <feFlood flood-opacity="0" result="BackgroundImageFix"/>
      <feColorMatrix in="SourceAlpha" result="hardAlpha" values="0 0 0 0 0 0 0 0 0 0 0 0 0 0 0 0 0 0 127 0"/>
      <feOffset dx="-2" dy="-2"/>
      <feComposite in2="hardAlpha" operator="out"/>
      <feColorMatrix values="0 0 0 0 0.635205 0 0 0 0 0.635205 0 0 0 0 0.635205 0 0 0 0.2 0"/>
      <feBlend in2="BackgroundImageFix" result="effect1_dropShadow_37_148235"/>
      <feBlend in="SourceGraphic" in2="effect1_dropShadow_37_148235" result="shape"/>
    </filter>
    <filter id="e" width="38.031" height="41.721" x="337.438" y="301.351" color-interpolation-filters="sRGB" filterUnits="userSpaceOnUse">
      <feFlood flood-opacity="0" result="BackgroundImageFix"/>
      <feColorMatrix in="SourceAlpha" result="hardAlpha" values="0 0 0 0 0 0 0 0 0 0 0 0 0 0 0 0 0 0 127 0"/>
      <feOffset dx="2" dy="-2"/>
      <feComposite in2="hardAlpha" operator="out"/>
      <feColorMatrix values="0 0 0 0 0.635205 0 0 0 0 0.635205 0 0 0 0 0.635205 0 0 0 0.2 0"/>
      <feBlend in2="BackgroundImageFix" result="effect1_dropShadow_37_148235"/>
      <feBlend in="SourceGraphic" in2="effect1_dropShadow_37_148235" result="shape"/>
    </filter>
    <filter id="g" width="49.445" height="53.258" x="388.656" y="317.943" color-interpolation-filters="sRGB" filterUnits="userSpaceOnUse">
      <feFlood flood-opacity="0" result="BackgroundImageFix"/>
      <feColorMatrix in="SourceAlpha" result="hardAlpha" values="0 0 0 0 0 0 0 0 0 0 0 0 0 0 0 0 0 0 127 0"/>
      <feOffset dx="2" dy="3"/>
      <feGaussianBlur stdDeviation="1"/>
      <feComposite in2="hardAlpha" operator="out"/>
      <feColorMatrix values="0 0 0 0 0 0 0 0 0 0 0 0 0 0 0 0 0 0 0.1 0"/>
      <feBlend in2="BackgroundImageFix" result="effect1_dropShadow_37_148235"/>
      <feBlend in="SourceGraphic" in2="effect1_dropShadow_37_148235" result="shape"/>
    </filter>
    <clipPath id="a">
      <path fill="#fff" d="M0 0h544v427H0z"/>
    </clipPath>
  </defs>
</svg>
