<svg xmlns="http://www.w3.org/2000/svg" width="12" height="11" fill="none" viewBox="0 0 12 11">
      <path
        fill="#292929"
        d="M11.48.384v1.664h-.288c-.683 0-1.227.117-1.632.352-.405.235-.704.608-.896 1.12-.17.49-.256 1.12-.256 1.888v2.4l-.768-1.44c.15-.085.341-.15.576-.192a4.44 4.44 0 0 1 .736-.064c.597 0 1.088.192 1.472.576.405.363.608.875.608 1.536 0 .619-.192 1.13-.576 1.536-.363.405-.864.608-1.504.608-.405 0-.79-.096-1.152-.288-.363-.192-.661-.533-.896-1.024-.235-.49-.352-1.195-.352-2.112v-.672c0-1.557.192-2.763.576-3.616.384-.853.928-1.44 1.632-1.76.704-.341 1.536-.512 2.496-.512h.224Zm-6.208 0v1.664h-.288c-.683 0-1.227.117-1.632.352-.405.235-.704.608-.896 1.12-.17.49-.256 1.12-.256 1.888v2.4l-.768-1.44c.15-.085.341-.15.576-.192a4.44 4.44 0 0 1 .736-.064c.597 0 1.088.192 1.472.576.405.363.608.875.608 1.536 0 .619-.192 1.13-.576 1.536-.363.405-.864.608-1.504.608-.405 0-.79-.096-1.152-.288-.363-.192-.661-.533-.896-1.024-.235-.49-.352-1.195-.352-2.112v-.672c0-1.557.192-2.763.576-3.616.384-.853.928-1.44 1.632-1.76C3.256.555 4.088.384 5.048.384h.224Z"
      />
</svg>
