<svg width="167" height="70" viewBox="0 0 167 70" fill="none" xmlns="http://www.w3.org/2000/svg">
<path d="M121.474 18.4733C120.104 14.6438 119.446 13.6231 118.164 11.7506C117.376 10.6005 116.121 9.84596 114.734 9.71226C113.327 9.57672 111.94 10.099 110.921 11.0781C109.214 12.7184 108.125 13.6769 106.343 16.9489C105.958 17.6561 105.84 18.4793 105.985 19.2715C106.324 21.1312 108.024 22.4266 109.907 22.2608L110.4 22.2175C110.779 22.1841 111.152 22.0992 111.509 21.9652L111.762 21.8703C113.042 21.3893 114.478 21.5778 115.59 22.373L115.621 22.3951C116.019 22.6791 116.466 22.8859 116.94 23.0049L117.253 23.0836C119.065 23.5386 120.92 22.5139 121.5 20.7379C121.74 20.001 121.735 19.2031 121.474 18.4733Z" fill="#FFF7E1"/>
<path d="M101.595 10.9523C101.669 12.838 102.719 14.3743 104.19 14.3163C106.492 14.0053 107.665 12.1325 106.8 10.2736C105.756 8.02922 104.828 7.03478 103.619 6.87489C102.41 6.71501 101.521 9.06654 101.595 10.9523Z" fill="#FFF7E1"/>
<path d="M127.166 13.4153C126.733 15.2521 125.409 16.5598 123.976 16.2219C121.776 15.477 120.982 13.4148 122.186 11.7552C123.639 9.7514 124.74 8.95253 125.958 9.02645C127.175 9.10037 127.599 11.5785 127.166 13.4153Z" fill="#FFF7E1"/>
<path d="M108.27 5.00013C107.976 7.03765 108.48 8.84764 110.35 9.11736C113.297 9.54229 114.149 7.87164 113.91 5.29207C113.625 2.22557 112.942 1.02125 111.216 1.02268C109.49 1.02411 108.564 2.96261 108.27 5.00013Z" fill="#FFF7E1"/>
<path d="M122.082 6.33154C121.981 8.38768 121.141 10.0682 119.254 9.97582C116.281 9.83027 115.763 8.02761 116.49 5.54121C117.355 2.58548 118.256 1.53373 119.95 1.8647C121.643 2.19566 122.183 4.27541 122.082 6.33154Z" fill="#FFF7E1"/>
<path d="M17.1856 48.6195C14.854 47.4437 14.0962 47.2599 12.6711 46.9559C11.7958 46.7693 10.8781 46.9733 10.1733 47.5249C9.4589 48.0841 9.0443 48.9411 9.00334 49.8474C8.93471 51.3659 8.85205 52.2937 9.47054 54.6044C9.60422 55.1039 9.91384 55.5388 10.3316 55.8435C11.3123 56.5587 12.6762 56.4095 13.4791 55.4993L13.6891 55.2612C13.8509 55.0777 13.987 54.8731 14.0937 54.6529L14.1693 54.497C14.5522 53.7068 15.3037 53.1593 16.1732 53.037L16.1974 53.0336C16.508 52.9899 16.8076 52.8883 17.0807 52.7341L17.2612 52.6321C18.3057 52.0422 18.7155 50.7446 18.1995 49.6618C17.9855 49.2125 17.63 48.8435 17.1856 48.6195Z" fill="#E4CAB1"/>
<path d="M4.6101 53.9123C5.47898 54.7568 6.64686 55.0075 7.30572 54.3296C8.23931 53.1664 7.95642 51.7762 6.73177 51.2937C5.25319 50.7112 4.38126 50.6592 3.74796 51.1197C3.11466 51.5801 3.74122 53.0678 4.6101 53.9123Z" fill="#E4CAB1"/>
<path d="M17.5935 43.7489C18.2047 44.7952 18.1674 45.9891 17.3512 46.4659C15.9978 47.0927 14.7163 46.4842 14.542 45.1795C14.3316 43.6043 14.4906 42.7454 15.0897 42.2412C15.6888 41.7371 16.9824 42.7026 17.5935 43.7489Z" fill="#E4CAB1"/>
<path d="M5.07547 48.1938C5.84018 49.2718 6.87525 49.8912 7.86485 49.1893C9.42393 48.0834 9.08139 46.929 7.82877 45.8346C6.3397 44.5336 5.48909 44.2754 4.68667 45.0396C3.88425 45.8038 4.31077 47.1157 5.07547 48.1938Z" fill="#E4CAB1"/>
<path d="M12.0925 42.7031C12.9554 43.7043 13.308 44.8579 12.3889 45.6499C10.9409 46.8977 9.90257 46.2879 9.14109 44.8091C8.23586 43.0511 8.18951 42.1634 9.12408 41.568C10.0587 40.9727 11.2297 41.7018 12.0925 42.7031Z" fill="#E4CAB1"/>
<path d="M158.463 64.9489C158.682 62.3468 158.569 61.5752 158.318 60.1398C158.164 59.2581 157.632 58.4832 156.857 58.0357C156.071 57.5821 155.121 57.5179 154.265 57.8186C152.831 58.3226 151.94 58.5927 150.028 60.03C149.615 60.3407 149.327 60.7905 149.2 61.2918C148.904 62.4687 149.552 63.678 150.696 64.0825L150.995 64.1883C151.226 64.2698 151.467 64.3196 151.711 64.3363L151.884 64.3481C152.76 64.4079 153.549 64.9002 153.987 65.661L153.999 65.6822C154.156 65.9539 154.362 66.1938 154.607 66.3895L154.769 66.5188C155.707 67.267 157.063 67.1622 157.875 66.2789C158.212 65.9124 158.421 65.4448 158.463 64.9489Z" fill="#FAE7E3"/>
<path d="M148.856 55.2628C148.398 56.3844 148.602 57.5613 149.477 57.9191C150.904 58.3502 152.088 57.5682 152.078 56.252C152.066 54.6628 151.788 53.8346 151.124 53.4194C150.46 53.0041 149.315 54.1413 148.856 55.2628Z" fill="#FAE7E3"/>
<path d="M163.136 63.5054C162.394 64.4633 161.273 64.875 160.525 64.2962C159.438 63.2752 159.524 61.8591 160.669 61.2098C162.051 60.4259 162.907 60.2523 163.599 60.6195C164.29 60.9868 163.878 62.5475 163.136 63.5054Z" fill="#FAE7E3"/>
<path d="M154.332 53.5592C153.618 54.6715 153.43 55.8631 154.451 56.5185C156.06 57.5513 157.003 56.802 157.549 55.2312C158.199 53.3637 158.121 52.4783 157.112 52.0197C156.104 51.561 155.046 52.447 154.332 53.5592Z" fill="#FAE7E3"/>
<path d="M162.052 58.0133C161.446 59.1879 160.507 59.9462 159.429 59.3897C157.731 58.5131 157.908 57.322 158.995 56.063C160.287 54.5663 161.093 54.1915 161.995 54.8358C162.897 55.4801 162.658 56.8388 162.052 58.0133Z" fill="#FAE7E3"/>
</svg>
