<svg width="164" height="92" viewBox="0 0 164 92" fill="none" xmlns="http://www.w3.org/2000/svg">
<path d="M36.0492 18.2394C33.5843 15.0043 32.648 14.2307 30.859 12.8343C29.7601 11.9766 28.3358 11.6373 26.9729 11.93C25.5914 12.2266 24.427 13.1445 23.7523 14.386C22.6218 16.4662 21.8741 17.7093 21.1665 21.3672C21.0135 22.1578 21.1509 22.9779 21.5285 23.6892C22.4149 25.3589 24.4269 26.079 26.1715 25.3509L26.6278 25.1605C26.9794 25.0138 27.3095 24.8199 27.6089 24.5842L27.821 24.4172C28.8956 23.5713 30.321 23.3163 31.6222 23.7372L31.6584 23.7489C32.1232 23.8993 32.612 23.9611 33.0996 23.931L33.4219 23.9112C35.2866 23.7963 36.7445 22.2581 36.7594 20.3899C36.7655 19.6148 36.519 18.8559 36.0492 18.2394Z" fill="#FFF7E1"/>
<path d="M14.8284 17.0882C15.4701 18.8629 16.9352 20.0094 18.3197 19.5088C20.4197 18.5155 20.9703 16.3756 19.5837 14.8656C17.9095 13.0425 16.7237 12.3758 15.523 12.5894C14.3223 12.803 14.1866 15.3134 14.8284 17.0882Z" fill="#FFF7E1"/>
<path d="M39.9455 11.6951C40.0888 13.5769 39.2235 15.2238 37.7554 15.3356C35.4328 15.2918 34.0523 13.5665 34.6969 11.6204C35.4752 9.27078 36.2829 8.17603 37.4654 7.87797C38.648 7.57991 39.8022 9.81339 39.9455 11.6951Z" fill="#FFF7E1"/>
<path d="M19.3839 9.3959C19.7207 11.4268 20.7486 12.9994 22.6128 12.6902C25.5498 12.2032 25.8563 10.3529 24.8473 7.96687C23.6477 5.1304 22.6322 4.18935 20.9878 4.71318C19.3433 5.23702 19.0471 7.36504 19.3839 9.3959Z" fill="#FFF7E1"/>
<path d="M32.9515 6.48311C33.478 8.47324 33.1862 10.3292 31.3594 10.8125C28.4814 11.574 27.4423 10.0126 27.383 7.42261C27.3125 4.34374 27.8523 3.06877 29.5668 2.87143C31.2814 2.67409 32.4249 4.49299 32.9515 6.48311Z" fill="#FFF7E1"/>
<path d="M154.781 79.0259C154.657 76.047 154.419 75.1891 153.93 73.599C153.63 72.6222 152.916 71.8205 151.974 71.4243C151.02 71.0227 149.935 71.0855 149.008 71.5485C147.455 72.3242 146.484 72.7574 144.524 74.6587C144.1 75.0697 143.838 75.6202 143.767 76.2062C143.598 77.5817 144.505 78.859 145.859 79.1537L146.214 79.2308C146.486 79.2902 146.766 79.3123 147.045 79.2963L147.243 79.2849C148.244 79.2276 149.207 79.6727 149.813 80.4718L149.829 80.4941C150.046 80.7795 150.313 81.0218 150.619 81.2084L150.821 81.3318C151.99 82.0454 153.512 81.7329 154.305 80.6164C154.634 80.1532 154.804 79.5936 154.781 79.0259Z" fill="#EEE3D9"/>
<path d="M142.513 69.4274C142.153 70.7633 142.553 72.0673 143.595 72.3476C145.274 72.632 146.503 71.5772 146.303 70.0876C146.062 68.2893 145.63 67.3908 144.818 67.0152C144.007 66.6396 142.872 68.0914 142.513 69.4274Z" fill="#EEE3D9"/>
<path d="M159.869 76.7284C159.165 77.9195 157.954 78.546 157.025 77.997C155.647 76.9958 155.542 75.3795 156.746 74.4805C158.2 73.3951 159.145 73.0761 159.981 73.3934C160.817 73.7106 160.573 75.5374 159.869 76.7284Z" fill="#EEE3D9"/>
<path d="M148.48 66.7168C147.83 68.0787 147.787 69.4552 149.038 70.0519C151.007 70.992 151.968 70.0087 152.363 68.1512C152.833 65.943 152.617 64.9512 151.409 64.5757C150.201 64.2003 149.13 65.3549 148.48 66.7168Z" fill="#EEE3D9"/>
<path d="M157.855 70.6614C157.336 72.0785 156.382 73.0714 155.081 72.5951C153.032 71.8447 153.063 70.4702 154.114 68.8887C155.364 67.0088 156.224 66.4691 157.337 67.0701C158.45 67.6712 158.374 69.2444 157.855 70.6614Z" fill="#EEE3D9"/>
<path d="M17.9942 79.4189C15.6626 78.2431 14.9048 78.0593 13.4797 77.7554C12.6044 77.5687 11.6867 77.7727 10.9819 78.3244C10.2675 78.8836 9.8529 79.7405 9.81194 80.6468C9.7433 82.1654 9.66064 83.0931 10.2791 85.4039C10.4128 85.9033 10.7224 86.3383 11.1402 86.6429C12.1208 87.3581 13.4848 87.2089 14.2877 86.2987L14.4976 86.0607C14.6595 85.8772 14.7956 85.6725 14.9023 85.4524L14.9779 85.2964C15.3608 84.5062 16.1123 83.9588 16.9818 83.8365L17.006 83.833C17.3166 83.7894 17.6162 83.6878 17.8893 83.5335L18.0698 83.4315C19.1143 82.8416 19.5241 81.5441 19.0081 80.4612C18.794 80.0119 18.4386 79.643 17.9942 79.4189Z" fill="#E4CAB1"/>
<path d="M5.4187 84.7121C6.28757 85.5566 7.45545 85.8073 8.11431 85.1294C9.0479 83.9663 8.76501 82.5761 7.54037 82.0935C6.06178 81.511 5.18985 81.459 4.55655 81.9195C3.92325 82.38 4.54982 83.8676 5.4187 84.7121Z" fill="#E4CAB1"/>
<path d="M18.4021 74.5486C19.0133 75.5949 18.976 76.7888 18.1598 77.2655C16.8064 77.8924 15.5249 77.2839 15.3506 75.9792C15.1402 74.404 15.2992 73.5451 15.8983 73.0409C16.4974 72.5368 17.791 73.5023 18.4021 74.5486Z" fill="#E4CAB1"/>
<path d="M5.88797 78.9934C6.65268 80.0715 7.68775 80.6909 8.67735 79.989C10.2364 78.8831 9.89389 77.7286 8.64127 76.6343C7.1522 75.3333 6.30159 75.0751 5.49917 75.8393C4.69675 76.6035 5.12327 77.9154 5.88797 78.9934Z" fill="#E4CAB1"/>
<path d="M12.9011 73.5026C13.764 74.5039 14.1166 75.6574 13.1975 76.4495C11.7495 77.6973 10.7112 77.0875 9.94968 75.6087C9.04446 73.8507 8.99811 72.963 9.93268 72.3676C10.8672 71.7722 12.0383 72.5014 12.9011 73.5026Z" fill="#E4CAB1"/>
<mask id="path-16-outside-1_765_4068" maskUnits="userSpaceOnUse" x="25.9606" y="12.3731" width="105.54" height="80.0653" fill="black">
<rect fill="white" x="25.9606" y="12.3731" width="105.54" height="80.0653"/>
<path fillRule="evenodd" clipRule="evenodd" d="M45.4557 75.5919C42.6873 75.8917 39.8023 75.3727 37.1779 73.9257C30.385 70.1801 27.911 61.635 31.6522 54.8396L36.065 46.8244C35.9798 46.2149 35.9298 45.594 35.9172 44.9635C35.7803 38.124 40.0843 32.221 46.1824 30.0214C49.0101 24.208 54.8892 20.1305 61.7757 19.926C66.6607 17.1566 72.2847 15.5273 78.2931 15.4071C84.3046 15.2867 89.992 16.6912 94.9858 19.2655C95.1271 19.2593 95.2687 19.2548 95.4109 19.252C102.416 19.1118 108.564 23.0163 111.629 28.8195C117.654 30.8632 122.044 36.5125 122.178 43.2388C122.191 43.8695 122.166 44.4922 122.105 45.1048L126.835 52.9372C130.845 59.5774 128.715 68.2147 122.077 72.2291C119.407 73.8439 116.414 74.4647 113.529 74.1976C111.303 81.3746 104.685 86.6569 96.763 86.8154C94.8292 86.8541 92.9607 86.5846 91.2045 86.0521C88.5016 87.798 85.2957 88.8385 81.8423 88.9076L75.8946 89.0266C72.6841 89.0908 69.6537 88.3077 67.0171 86.8824C65.6386 87.254 64.1932 87.4655 62.7016 87.4953C54.7924 87.6536 47.977 82.6565 45.4557 75.5919Z"/>
</mask>
<path fillRule="evenodd" clipRule="evenodd" d="M45.4557 75.5919C42.6873 75.8917 39.8023 75.3727 37.1779 73.9257C30.385 70.1801 27.911 61.635 31.6522 54.8396L36.065 46.8244C35.9798 46.2149 35.9298 45.594 35.9172 44.9635C35.7803 38.124 40.0843 32.221 46.1824 30.0214C49.0101 24.208 54.8892 20.1305 61.7757 19.926C66.6607 17.1566 72.2847 15.5273 78.2931 15.4071C84.3046 15.2867 89.992 16.6912 94.9858 19.2655C95.1271 19.2593 95.2687 19.2548 95.4109 19.252C102.416 19.1118 108.564 23.0163 111.629 28.8195C117.654 30.8632 122.044 36.5125 122.178 43.2388C122.191 43.8695 122.166 44.4922 122.105 45.1048L126.835 52.9372C130.845 59.5774 128.715 68.2147 122.077 72.2291C119.407 73.8439 116.414 74.4647 113.529 74.1976C111.303 81.3746 104.685 86.6569 96.763 86.8154C94.8292 86.8541 92.9607 86.5846 91.2045 86.0521C88.5016 87.798 85.2957 88.8385 81.8423 88.9076L75.8946 89.0266C72.6841 89.0908 69.6537 88.3077 67.0171 86.8824C65.6386 87.254 64.1932 87.4655 62.7016 87.4953C54.7924 87.6536 47.977 82.6565 45.4557 75.5919Z" fill="white"/>
<path d="M45.4557 75.5919L47.3393 74.9197L46.809 73.4337L45.2404 73.6035L45.4557 75.5919ZM37.1779 73.9257L36.2122 75.6771L36.2122 75.6771L37.1779 73.9257ZM31.6522 54.8396L29.9002 53.8751L29.9002 53.8751L31.6522 54.8396ZM36.065 46.8244L37.8171 47.7889L38.1379 47.2062L38.0458 46.5474L36.065 46.8244ZM46.1824 30.0214L46.861 31.9027L47.6255 31.627L47.981 30.8962L46.1824 30.0214ZM61.7757 19.926L61.835 21.9251L62.3307 21.9104L62.762 21.6659L61.7757 19.926ZM94.9858 19.2655L94.0694 21.0432L94.5416 21.2866L95.0724 21.2636L94.9858 19.2655ZM111.629 28.8195L109.861 29.7536L110.233 30.4577L110.987 30.7135L111.629 28.8195ZM122.105 45.1048L120.115 44.9072L120.049 45.5692L120.393 46.1387L122.105 45.1048ZM126.835 52.9372L128.547 51.9033L126.835 52.9372ZM122.077 72.2291L123.112 73.9404L122.077 72.2291ZM113.529 74.1976L113.714 72.2061L112.1 72.0567L111.619 73.6051L113.529 74.1976ZM91.2045 86.0521L91.7849 84.1381L90.8979 83.8692L90.1193 84.3721L91.2045 86.0521ZM81.8423 88.9076L81.8022 86.908L81.8423 88.9076ZM75.8946 89.0266L75.9346 91.0262L75.8946 89.0266ZM67.0171 86.8824L67.9682 85.123L67.2666 84.7438L66.4966 84.9513L67.0171 86.8824ZM45.2404 73.6035C42.8675 73.8605 40.3966 73.4165 38.1436 72.1743L36.2122 75.6771C39.208 77.3289 42.5072 77.9229 45.671 77.5803L45.2404 73.6035ZM38.1436 72.1743C32.3175 68.9618 30.1955 61.6324 33.4043 55.8042L29.9002 53.8751C25.6265 61.6376 28.4524 71.3984 36.2122 75.6771L38.1436 72.1743ZM33.4043 55.8042L37.8171 47.7889L34.313 45.8598L29.9002 53.8751L33.4043 55.8042ZM38.0458 46.5474C37.9715 46.0163 37.9278 45.4745 37.9168 44.9235L33.9176 45.0035C33.9318 45.7135 33.9881 46.4136 34.0843 47.1013L38.0458 46.5474ZM37.9168 44.9235C37.7976 38.9665 41.5457 33.82 46.861 31.9027L45.5038 28.14C38.6229 30.622 33.7631 37.2814 33.9176 45.0035L37.9168 44.9235ZM47.981 30.8962C50.4962 25.725 55.7217 22.1067 61.835 21.9251L61.7163 17.9269C54.0567 18.1543 47.5239 22.691 44.3839 29.1466L47.981 30.8962ZM62.762 21.6659C67.3653 19.0562 72.665 17.5201 78.3331 17.4067L78.2531 13.4075C71.9044 13.5345 65.9562 15.257 60.7893 18.1861L62.762 21.6659ZM78.3331 17.4067C84.0042 17.2932 89.3637 18.6174 94.0694 21.0432L95.9022 17.4878C90.6203 14.765 84.6051 13.2803 78.2531 13.4075L78.3331 17.4067ZM95.0724 21.2636C95.1982 21.2581 95.3243 21.2541 95.4509 21.2516L95.3708 17.2524C95.2132 17.2556 95.0559 17.2605 94.8992 17.2673L95.0724 21.2636ZM95.4509 21.2516C101.67 21.1271 107.134 24.5916 109.861 29.7536L113.398 27.8854C109.994 21.441 103.162 17.0965 95.3708 17.2524L95.4509 21.2516ZM110.987 30.7135C116.238 32.4951 120.061 37.4206 120.179 43.2788L124.178 43.1988C124.026 35.6044 119.069 29.2313 112.272 26.9255L110.987 30.7135ZM120.179 43.2788C120.19 43.83 120.168 44.3734 120.115 44.9072L124.095 45.3024C124.164 44.611 124.192 43.909 124.178 43.1988L120.179 43.2788ZM120.393 46.1387L125.123 53.9711L128.547 51.9033L123.817 44.0709L120.393 46.1387ZM125.123 53.9711C128.562 59.6662 126.735 67.0747 121.042 70.5177L123.112 73.9404C130.695 69.3547 133.128 59.4886 128.547 51.9033L125.123 53.9711ZM121.042 70.5177C118.75 71.9039 116.187 72.4351 113.714 72.2061L113.345 76.1891C116.642 76.4943 120.064 75.784 123.112 73.9404L121.042 70.5177ZM111.619 73.6051C109.64 79.9855 103.756 84.6751 96.723 84.8158L96.803 88.815C105.613 88.6387 112.966 82.7638 115.44 74.7901L111.619 73.6051ZM96.723 84.8158C95.0018 84.8503 93.3426 84.6105 91.7849 84.1381L90.6241 87.966C92.5789 88.5588 94.6566 88.858 96.803 88.815L96.723 84.8158ZM90.1193 84.3721C87.7194 85.9223 84.8738 86.8465 81.8022 86.908L81.8823 90.9072C85.7175 90.8304 89.2838 89.6737 92.2896 87.7321L90.1193 84.3721ZM81.8022 86.908L75.8546 87.027L75.9346 91.0262L81.8823 90.9072L81.8022 86.908ZM75.8546 87.027C72.9986 87.0842 70.3087 86.3882 67.9682 85.123L66.066 88.6418C68.9987 90.2271 72.3695 91.0975 75.9346 91.0262L75.8546 87.027ZM66.4966 84.9513C65.2736 85.281 63.9895 85.4692 62.6616 85.4957L62.7417 89.4949C64.3969 89.4618 66.0036 89.227 67.5377 88.8135L66.4966 84.9513ZM62.6616 85.4957C55.6395 85.6363 49.5808 81.2001 47.3393 74.9197L43.5721 76.2642C46.3732 84.1128 53.9452 89.671 62.7417 89.4949L62.6616 85.4957Z" fill="#F6F1ED" mask="url(#path-16-outside-1_765_4068)"/>
<path d="M75.0664 60.0126C75.0664 58.4313 76.3483 57.1494 77.9296 57.1494H79.3612C80.9426 57.1494 82.2245 58.4313 82.2245 60.0126C82.2245 61.0669 81.3699 61.9215 80.3157 61.9215H76.9752C75.921 61.9215 75.0664 61.0669 75.0664 60.0126Z" fill="#525252"/>
<rect x="66.1211" y="52.3779" width="5.96505" height="5.96505" rx="2.98253" fill="#525252"/>
<rect x="54.1914" y="58.3418" width="16.1056" height="16.1056" rx="8.05282" fill="#EED5CD"/>
<rect x="86.9961" y="58.3428" width="16.1056" height="16.1056" rx="8.05282" fill="#EED5CD"/>
<rect x="85.2109" y="52.377" width="5.96505" height="5.96505" rx="2.98253" fill="#525252"/>
</svg>
