<svg width="164" height="91" viewBox="0 0 164 91" fill="none" xmlns="http://www.w3.org/2000/svg">
<path d="M36.0472 17.3634C33.5823 14.1284 32.6461 13.3547 30.857 11.9584C29.7582 11.1007 28.3339 10.7614 26.971 11.054C25.5894 11.3506 24.425 12.2685 23.7503 13.51C22.6198 15.5903 21.8722 16.8334 21.1645 20.4912C21.0115 21.2818 21.1489 22.102 21.5266 22.8132C22.413 24.4829 24.425 25.203 26.1695 24.4749L26.6258 24.2845C26.9775 24.1378 27.3075 23.9439 27.6069 23.7082L27.819 23.5412C28.8936 22.6953 30.319 22.4403 31.6202 22.8613L31.6565 22.873C32.1212 23.0233 32.6101 23.0851 33.0976 23.055L33.42 23.0352C35.2847 22.9203 36.7426 21.3821 36.7574 19.5139C36.7636 18.7388 36.517 17.9799 36.0472 17.3634Z" fill="#FFF7E1"/>
<path d="M14.8279 16.2122C15.4696 17.9869 16.9347 19.1335 18.3192 18.6328C20.4192 17.6395 20.9698 15.4996 19.5832 13.9896C17.909 12.1665 16.7232 11.4998 15.5225 11.7134C14.3218 11.927 14.1861 14.4375 14.8279 16.2122Z" fill="#FFF7E1"/>
<path d="M39.9438 10.8192C40.0871 12.7009 39.2218 14.3478 37.7537 14.4596C35.4311 14.4158 34.0506 12.6905 34.6952 10.7444C35.4735 8.3948 36.2812 7.30005 37.4637 7.00199C38.6463 6.70393 39.8005 8.93741 39.9438 10.8192Z" fill="#FFF7E1"/>
<path d="M19.3844 8.51992C19.7212 10.5508 20.749 12.1234 22.6133 11.8143C25.5503 11.3272 25.8568 9.47695 24.8477 7.09089C23.6482 4.25442 22.6327 3.31338 20.9883 3.83721C19.3438 4.36104 19.0476 6.48906 19.3844 8.51992Z" fill="#FFF7E1"/>
<path d="M32.952 5.60714C33.4785 7.59726 33.1867 9.4532 31.3599 9.93652C28.4818 10.698 27.4428 9.1366 27.3835 6.54663C27.313 3.46776 27.8528 2.1928 29.5673 1.99546C31.2818 1.79812 32.4254 3.61702 32.952 5.60714Z" fill="#FFF7E1"/>
<path d="M154.78 78.1518C154.657 75.173 154.419 74.3151 153.93 72.7249C153.629 71.7482 152.916 70.9465 151.974 70.5503C151.019 70.1486 149.934 70.2115 149.007 70.6745C147.455 71.4502 146.484 71.8834 144.523 73.7847C144.099 74.1957 143.838 74.7462 143.766 75.3322C143.598 76.7077 144.505 77.985 145.859 78.2797L146.213 78.3568C146.486 78.4162 146.766 78.4382 147.045 78.4222L147.242 78.4109C148.243 78.3536 149.207 78.7986 149.812 79.5978L149.829 79.62C150.045 79.9055 150.313 80.1478 150.619 80.3344L150.821 80.4578C151.99 81.1714 153.511 80.8589 154.304 79.7424C154.634 79.2791 154.804 78.7196 154.78 78.1518Z" fill="#EEE3D9"/>
<path d="M142.511 68.5533C142.152 69.8893 142.551 71.1933 143.593 71.4736C145.272 71.758 146.501 70.7031 146.302 69.2136C146.061 67.4152 145.628 66.5168 144.817 66.1412C144.006 65.7656 142.87 67.2174 142.511 68.5533Z" fill="#EEE3D9"/>
<path d="M159.869 75.8544C159.165 77.0455 157.954 77.672 157.025 77.123C155.647 76.1218 155.542 74.5055 156.746 73.6065C158.2 72.521 159.145 72.2021 159.981 72.5194C160.817 72.8366 160.573 74.6634 159.869 75.8544Z" fill="#EEE3D9"/>
<path d="M148.478 65.8428C147.828 67.2047 147.786 68.5812 149.036 69.1779C151.005 70.118 151.966 69.1347 152.361 67.2771C152.831 65.069 152.616 64.0771 151.408 63.7017C150.199 63.3263 149.128 64.4809 148.478 65.8428Z" fill="#EEE3D9"/>
<path d="M157.855 69.7874C157.336 71.2044 156.381 72.1974 155.081 71.7211C153.031 70.9706 153.062 69.5961 154.114 68.0147C155.364 66.1347 156.223 65.5951 157.337 66.1961C158.45 66.7972 158.374 68.3703 157.855 69.7874Z" fill="#EEE3D9"/>
<path d="M17.9959 78.5454C15.6643 77.3696 14.9065 77.1858 13.4814 76.8818C12.6061 76.6952 11.6884 76.8992 10.9836 77.4508C10.2692 78.01 9.85461 78.867 9.81364 79.7733C9.74501 81.2918 9.66235 82.2196 10.2808 84.5303C10.4145 85.0298 10.7241 85.4648 11.1419 85.7694C12.1226 86.4846 13.4865 86.3354 14.2894 85.4252L14.4994 85.1871C14.6612 85.0036 14.7973 84.799 14.904 84.5788L14.9796 84.4229C15.3626 83.6327 16.114 83.0852 16.9835 82.9629L17.0077 82.9595C17.3183 82.9158 17.6179 82.8142 17.891 82.66L18.0715 82.558C19.116 81.9681 19.5258 80.6706 19.0098 79.5877C18.7958 79.1384 18.4403 78.7695 17.9959 78.5454Z" fill="#FAE7E3"/>
<path d="M5.41992 83.8381C6.2888 84.6826 7.45667 84.9333 8.11553 84.2554C9.04912 83.0922 8.76623 81.702 7.54159 81.2195C6.063 80.6369 5.19107 80.5849 4.55777 81.0454C3.92447 81.5059 4.55104 82.9935 5.41992 83.8381Z" fill="#FAE7E3"/>
<path d="M18.4024 73.6746C19.0135 74.7209 18.9763 75.9148 18.16 76.3915C16.8067 77.0184 15.5251 76.4099 15.3509 75.1052C15.1405 73.53 15.2994 72.6711 15.8986 72.1669C16.4977 71.6627 17.7913 72.6283 18.4024 73.6746Z" fill="#FAE7E3"/>
<path d="M5.88773 78.1194C6.65243 79.1975 7.68751 79.8169 8.67711 79.115C10.2362 78.0091 9.89364 76.8546 8.64102 75.7602C7.15196 74.4593 6.30135 74.201 5.49893 74.9653C4.69651 75.7295 5.12302 77.0414 5.88773 78.1194Z" fill="#FAE7E3"/>
<path d="M12.9026 72.6291C13.7654 73.6303 14.1181 74.7839 13.199 75.5759C11.751 76.8237 10.7126 76.2139 9.95115 74.7351C9.04592 72.9772 8.99957 72.0894 9.93414 71.4941C10.8687 70.8987 12.0398 71.6278 12.9026 72.6291Z" fill="#FAE7E3"/>
<mask id="path-16-outside-1_563_130664" maskUnits="userSpaceOnUse" x="25.9606" y="11.5005" width="105.54" height="80.0653" fill="black">
<rect fill="white" x="25.9606" y="11.5005" width="105.54" height="80.0653"/>
<path fillRule="evenodd" clipRule="evenodd" d="M45.4557 74.7194C42.6873 75.0192 39.8023 74.5002 37.1779 73.0531C30.385 69.3075 27.911 60.7624 31.6522 53.9671L36.065 45.9518C35.9798 45.3424 35.9298 44.7214 35.9172 44.091C35.7803 37.2514 40.0843 31.3484 46.1824 29.1488C49.0101 23.3354 54.8892 19.2579 61.7757 19.0534C66.6607 16.284 72.2847 14.6547 78.2931 14.5345C84.3046 14.4142 89.992 15.8187 94.9858 18.3929C95.1271 18.3868 95.2687 18.3823 95.4109 18.3794C102.416 18.2392 108.564 22.1437 111.629 27.947C117.654 29.9906 122.044 35.64 122.178 42.3662C122.191 42.9969 122.166 43.6196 122.105 44.2322L126.835 52.0646C130.845 58.7049 128.715 67.3421 122.077 71.3565C119.407 72.9714 116.414 73.5922 113.529 73.325C111.303 80.5021 104.685 85.7843 96.763 85.9429C94.8292 85.9816 92.9608 85.7121 91.2045 85.1795C88.5016 86.9254 85.2957 87.9659 81.8423 88.035L75.8946 88.154C72.6841 88.2183 69.6537 87.4351 67.0171 86.0098C65.6386 86.3814 64.1932 86.5929 62.7016 86.6228C54.7924 86.7811 47.977 81.7839 45.4557 74.7194Z"/>
</mask>
<path fillRule="evenodd" clipRule="evenodd" d="M45.4557 74.7194C42.6873 75.0192 39.8023 74.5002 37.1779 73.0531C30.385 69.3075 27.911 60.7624 31.6522 53.9671L36.065 45.9518C35.9798 45.3424 35.9298 44.7214 35.9172 44.091C35.7803 37.2514 40.0843 31.3484 46.1824 29.1488C49.0101 23.3354 54.8892 19.2579 61.7757 19.0534C66.6607 16.284 72.2847 14.6547 78.2931 14.5345C84.3046 14.4142 89.992 15.8187 94.9858 18.3929C95.1271 18.3868 95.2687 18.3823 95.4109 18.3794C102.416 18.2392 108.564 22.1437 111.629 27.947C117.654 29.9906 122.044 35.64 122.178 42.3662C122.191 42.9969 122.166 43.6196 122.105 44.2322L126.835 52.0646C130.845 58.7049 128.715 67.3421 122.077 71.3565C119.407 72.9714 116.414 73.5922 113.529 73.325C111.303 80.5021 104.685 85.7843 96.763 85.9429C94.8292 85.9816 92.9608 85.7121 91.2045 85.1795C88.5016 86.9254 85.2957 87.9659 81.8423 88.035L75.8946 88.154C72.6841 88.2183 69.6537 87.4351 67.0171 86.0098C65.6386 86.3814 64.1932 86.5929 62.7016 86.6228C54.7924 86.7811 47.977 81.7839 45.4557 74.7194Z" fill="white"/>
<path d="M45.4557 74.7194L47.3393 74.0471L46.809 72.5611L45.2404 72.731L45.4557 74.7194ZM37.1779 73.0531L36.2122 74.8045L36.2122 74.8045L37.1779 73.0531ZM31.6522 53.9671L29.9002 53.0025L29.9002 53.0025L31.6522 53.9671ZM36.065 45.9518L37.8171 46.9164L38.1379 46.3336L38.0458 45.6748L36.065 45.9518ZM46.1824 29.1488L46.861 31.0302L47.6255 30.7544L47.981 30.0236L46.1824 29.1488ZM61.7757 19.0534L61.835 21.0526L62.3307 21.0378L62.762 20.7933L61.7757 19.0534ZM94.9858 18.3929L94.0694 20.1706L94.5416 20.414L95.0724 20.391L94.9858 18.3929ZM111.629 27.947L109.861 28.8811L110.233 29.5852L110.987 29.841L111.629 27.947ZM122.105 44.2322L120.115 44.0346L120.049 44.6966L120.393 45.2661L122.105 44.2322ZM126.835 52.0646L128.547 51.0307L128.547 51.0307L126.835 52.0646ZM122.077 71.3565L123.112 73.0679L122.077 71.3565ZM113.529 73.325L113.714 71.3336L112.1 71.1841L111.619 72.7325L113.529 73.325ZM91.2045 85.1795L91.7849 83.2656L90.8979 82.9966L90.1193 83.4995L91.2045 85.1795ZM67.0171 86.0098L67.9682 84.2505L67.2666 83.8712L66.4966 84.0788L67.0171 86.0098ZM45.2404 72.731C42.8675 72.988 40.3966 72.544 38.1436 71.3017L36.2122 74.8045C39.208 76.4564 42.5072 77.0504 45.671 76.7077L45.2404 72.731ZM38.1436 71.3017C32.3175 68.0892 30.1955 60.7598 33.4043 54.9317L29.9002 53.0025C25.6265 60.765 28.4524 70.5258 36.2122 74.8045L38.1436 71.3017ZM33.4043 54.9317L37.8171 46.9164L34.313 44.9872L29.9002 53.0025L33.4043 54.9317ZM38.0458 45.6748C37.9715 45.1437 37.9278 44.6019 37.9168 44.0509L33.9176 44.131C33.9318 44.8409 33.9881 45.541 34.0843 46.2288L38.0458 45.6748ZM37.9168 44.0509C37.7976 38.094 41.5457 32.9474 46.861 31.0302L45.5038 27.2675C38.6229 29.7494 33.7631 36.4089 33.9176 44.131L37.9168 44.0509ZM47.981 30.0236C50.4962 24.8524 55.7217 21.2341 61.835 21.0526L61.7163 17.0543C54.0567 17.2818 47.5239 21.8184 44.3839 28.274L47.981 30.0236ZM62.762 20.7933C67.3653 18.1837 72.665 16.6475 78.3331 16.5341L78.2531 12.5349C71.9044 12.662 65.9562 14.3844 60.7893 17.3136L62.762 20.7933ZM78.3331 16.5341C84.0042 16.4206 89.3637 17.7449 94.0694 20.1706L95.9022 16.6152C90.6203 13.8925 84.6051 12.4078 78.2531 12.5349L78.3331 16.5341ZM95.0724 20.391C95.1982 20.3856 95.3243 20.3816 95.4509 20.379L95.3708 16.3798C95.2132 16.383 95.0559 16.388 94.8992 16.3948L95.0724 20.391ZM95.4509 20.379C101.67 20.2546 107.134 23.719 109.861 28.8811L113.398 27.0128C109.994 20.5684 103.162 16.2239 95.3708 16.3798L95.4509 20.379ZM110.987 29.841C116.238 31.6225 120.061 36.5481 120.179 42.4062L124.178 42.3262C124.026 34.7319 119.069 28.3588 112.272 26.053L110.987 29.841ZM120.179 42.4062C120.19 42.9574 120.168 43.5008 120.115 44.0346L124.095 44.4298C124.164 43.7385 124.192 43.0364 124.178 42.3262L120.179 42.4062ZM120.393 45.2661L125.123 53.0985L128.547 51.0307L123.817 43.1983L120.393 45.2661ZM125.123 53.0985C128.562 58.7937 126.735 66.2021 121.042 69.6451L123.112 73.0679C130.695 68.4821 133.128 58.6161 128.547 51.0307L125.123 53.0985ZM121.042 69.6451C118.75 71.0313 116.187 71.5626 113.714 71.3336L113.345 75.3165C116.642 75.6218 120.064 74.9115 123.112 73.0679L121.042 69.6451ZM111.619 72.7325C109.64 79.1129 103.756 83.8025 96.723 83.9433L96.803 87.9425C105.613 87.7662 112.966 81.8913 115.44 73.9176L111.619 72.7325ZM96.723 83.9433C95.0018 83.9777 93.3426 83.738 91.7849 83.2656L90.6241 87.0935C92.5789 87.6862 94.6566 87.9854 96.803 87.9425L96.723 83.9433ZM90.1193 83.4995C87.7194 85.0497 84.8738 85.9739 81.8023 86.0354L81.8823 90.0346C85.7175 89.9578 89.2838 88.8011 92.2896 86.8595L90.1193 83.4995ZM81.8023 86.0354L75.8546 86.1544L75.9346 90.1536L81.8823 90.0346L81.8023 86.0354ZM75.8546 86.1544C72.9986 86.2116 70.3087 85.5157 67.9682 84.2505L66.066 87.7692C68.9987 89.3546 72.3695 90.225 75.9346 90.1536L75.8546 86.1544ZM66.4966 84.0788C65.2736 84.4084 63.9895 84.5966 62.6616 84.6232L62.7417 88.6224C64.3969 88.5893 66.0036 88.3544 67.5377 87.9409L66.4966 84.0788ZM62.6616 84.6232C55.6395 84.7637 49.5808 80.3275 47.3393 74.0471L43.5721 75.3916C46.3732 83.2402 53.9452 88.7984 62.7417 88.6224L62.6616 84.6232Z" fill="#F6F1ED" mask="url(#path-16-outside-1_563_130664)"/>
<path d="M75.0654 59.1411C75.0654 57.5597 76.3473 56.2778 77.9287 56.2778H79.3603C80.9416 56.2778 82.2235 57.5597 82.2235 59.1411C82.2235 60.1953 81.3689 61.0499 80.3147 61.0499H76.9742C75.92 61.0499 75.0654 60.1953 75.0654 59.1411Z" fill="#525252"/>
<rect x="66.1213" y="51.5054" width="5.96505" height="5.96505" rx="2.98253" fill="#525252"/>
<rect x="54.1917" y="57.4697" width="16.1056" height="16.1056" rx="8.05282" fill="#EED5CD"/>
<rect x="86.9966" y="57.4707" width="16.1056" height="16.1056" rx="8.05282" fill="#EED5CD"/>
<rect x="85.2095" y="51.5049" width="5.96505" height="5.96505" rx="2.98253" fill="#525252"/>
</svg>
